%
M48
M72
T01C0.0236
T02C0.0320
T03C0.0400
T04C0.0520
T05C0.1260
%
T01
X21018Y20915
X21018Y22490
X40703Y22490
X40703Y20915
X60388Y20915
X60388Y22490
T02
X69837Y27411
X69837Y28198
X2514Y28198
X2514Y27411
X2514Y25836
X2514Y25049
T03
X31829Y27411
X32829Y27411
X33829Y27411
X35804Y27411
X36804Y27411
X37804Y27411
X38804Y27411
X78376Y13238
X79376Y13238
X80376Y13238
X81376Y13238
X80861Y10891
X78499Y10891
X78499Y9891
X78499Y8891
X80861Y8891
X80861Y9891
X80861Y6848
X78499Y6848
X78499Y5848
X80861Y5848
T04
X1530Y20909
X1530Y22889
X73571Y12647
X75551Y12647
T05
X74561Y7923
X77317Y24458
X28499Y24458
X6058Y24458
M30
