G75*
%MOIN*%
%OFA0B0*%
%FSLAX24Y24*%
%IPPOS*%
%LPD*%
%AMOC8*
5,1,8,0,0,1.08239X$1,22.5*
%
%ADD10C,0.1340*%
%ADD11C,0.0860*%
%ADD12C,0.0680*%
%ADD13OC8,0.0740*%
%ADD14C,0.0476*%
D10*
X006058Y024458D03*
X028499Y024458D03*
X074561Y007923D03*
X077317Y024458D03*
D11*
X001920Y020909D02*
X001140Y020909D01*
X001140Y022889D02*
X001920Y022889D01*
X073571Y013037D02*
X073571Y012257D01*
X075551Y012257D02*
X075551Y013037D01*
D12*
X078376Y012938D02*
X078376Y013538D01*
X079376Y013538D02*
X079376Y012938D01*
X080376Y012938D02*
X080376Y013538D01*
X081376Y013538D02*
X081376Y012938D01*
X081161Y010891D02*
X080561Y010891D01*
X078799Y010891D02*
X078199Y010891D01*
X078199Y009891D02*
X078799Y009891D01*
X080561Y009891D02*
X081161Y009891D01*
X081161Y008891D02*
X080561Y008891D01*
X078799Y008891D02*
X078199Y008891D01*
X078199Y006848D02*
X078799Y006848D01*
X080561Y006848D02*
X081161Y006848D01*
X081161Y005848D02*
X080561Y005848D01*
X078799Y005848D02*
X078199Y005848D01*
X038804Y027111D02*
X038804Y027711D01*
X037804Y027711D02*
X037804Y027111D01*
X036804Y027111D02*
X036804Y027711D01*
X035804Y027711D02*
X035804Y027111D01*
X033829Y027111D02*
X033829Y027711D01*
X032829Y027711D02*
X032829Y027111D01*
X031829Y027111D02*
X031829Y027711D01*
D13*
X002514Y027411D03*
X002514Y028198D03*
X002514Y025836D03*
X002514Y025049D03*
X069837Y027411D03*
X069837Y028198D03*
D14*
X060388Y022490D03*
X060388Y020915D03*
X040703Y020915D03*
X040703Y022490D03*
X021018Y022490D03*
X021018Y020915D03*
M02*
