G75*
%MOIN*%
%OFA0B0*%
%FSLAX24Y24*%
%IPPOS*%
%LPD*%
%AMOC8*
5,1,8,0,0,1.08239X$1,22.5*
%
%ADD10C,0.0000*%
%ADD11C,0.0060*%
%ADD12C,0.0080*%
%ADD13C,0.0050*%
%ADD14R,0.0300X0.1500*%
%ADD15C,0.0100*%
%ADD16C,0.0079*%
%ADD17R,0.1500X0.0300*%
%ADD18C,0.0040*%
D10*
X000152Y019734D02*
X000152Y029183D01*
X082829Y029183D01*
X082829Y004773D01*
X072199Y004773D01*
X072199Y019734D01*
X000152Y019734D01*
X001530Y021499D02*
X001530Y022299D01*
X001130Y021899D02*
X001930Y021899D01*
X005428Y024458D02*
X005430Y024508D01*
X005436Y024558D01*
X005446Y024607D01*
X005460Y024655D01*
X005477Y024702D01*
X005498Y024747D01*
X005523Y024791D01*
X005551Y024832D01*
X005583Y024871D01*
X005617Y024908D01*
X005654Y024942D01*
X005694Y024972D01*
X005736Y024999D01*
X005780Y025023D01*
X005826Y025044D01*
X005873Y025060D01*
X005921Y025073D01*
X005971Y025082D01*
X006020Y025087D01*
X006071Y025088D01*
X006121Y025085D01*
X006170Y025078D01*
X006219Y025067D01*
X006267Y025052D01*
X006313Y025034D01*
X006358Y025012D01*
X006401Y024986D01*
X006442Y024957D01*
X006481Y024925D01*
X006517Y024890D01*
X006549Y024852D01*
X006579Y024812D01*
X006606Y024769D01*
X006629Y024725D01*
X006648Y024679D01*
X006664Y024631D01*
X006676Y024582D01*
X006684Y024533D01*
X006688Y024483D01*
X006688Y024433D01*
X006684Y024383D01*
X006676Y024334D01*
X006664Y024285D01*
X006648Y024237D01*
X006629Y024191D01*
X006606Y024147D01*
X006579Y024104D01*
X006549Y024064D01*
X006517Y024026D01*
X006481Y023991D01*
X006442Y023959D01*
X006401Y023930D01*
X006358Y023904D01*
X006313Y023882D01*
X006267Y023864D01*
X006219Y023849D01*
X006170Y023838D01*
X006121Y023831D01*
X006071Y023828D01*
X006020Y023829D01*
X005971Y023834D01*
X005921Y023843D01*
X005873Y023856D01*
X005826Y023872D01*
X005780Y023893D01*
X005736Y023917D01*
X005694Y023944D01*
X005654Y023974D01*
X005617Y024008D01*
X005583Y024045D01*
X005551Y024084D01*
X005523Y024125D01*
X005498Y024169D01*
X005477Y024214D01*
X005460Y024261D01*
X005446Y024309D01*
X005436Y024358D01*
X005430Y024408D01*
X005428Y024458D01*
X002914Y025442D02*
X002114Y025442D01*
X002514Y025042D02*
X002514Y025842D01*
X002514Y027405D02*
X002514Y028205D01*
X002114Y027805D02*
X002914Y027805D01*
X027869Y024458D02*
X027871Y024508D01*
X027877Y024558D01*
X027887Y024607D01*
X027901Y024655D01*
X027918Y024702D01*
X027939Y024747D01*
X027964Y024791D01*
X027992Y024832D01*
X028024Y024871D01*
X028058Y024908D01*
X028095Y024942D01*
X028135Y024972D01*
X028177Y024999D01*
X028221Y025023D01*
X028267Y025044D01*
X028314Y025060D01*
X028362Y025073D01*
X028412Y025082D01*
X028461Y025087D01*
X028512Y025088D01*
X028562Y025085D01*
X028611Y025078D01*
X028660Y025067D01*
X028708Y025052D01*
X028754Y025034D01*
X028799Y025012D01*
X028842Y024986D01*
X028883Y024957D01*
X028922Y024925D01*
X028958Y024890D01*
X028990Y024852D01*
X029020Y024812D01*
X029047Y024769D01*
X029070Y024725D01*
X029089Y024679D01*
X029105Y024631D01*
X029117Y024582D01*
X029125Y024533D01*
X029129Y024483D01*
X029129Y024433D01*
X029125Y024383D01*
X029117Y024334D01*
X029105Y024285D01*
X029089Y024237D01*
X029070Y024191D01*
X029047Y024147D01*
X029020Y024104D01*
X028990Y024064D01*
X028958Y024026D01*
X028922Y023991D01*
X028883Y023959D01*
X028842Y023930D01*
X028799Y023904D01*
X028754Y023882D01*
X028708Y023864D01*
X028660Y023849D01*
X028611Y023838D01*
X028562Y023831D01*
X028512Y023828D01*
X028461Y023829D01*
X028412Y023834D01*
X028362Y023843D01*
X028314Y023856D01*
X028267Y023872D01*
X028221Y023893D01*
X028177Y023917D01*
X028135Y023944D01*
X028095Y023974D01*
X028058Y024008D01*
X028024Y024045D01*
X027992Y024084D01*
X027964Y024125D01*
X027939Y024169D01*
X027918Y024214D01*
X027901Y024261D01*
X027887Y024309D01*
X027877Y024358D01*
X027871Y024408D01*
X027869Y024458D01*
X032829Y027011D02*
X032829Y027811D01*
X032429Y027411D02*
X033229Y027411D01*
X036904Y027411D02*
X037704Y027411D01*
X037304Y027011D02*
X037304Y027811D01*
X069437Y027805D02*
X070237Y027805D01*
X069837Y027405D02*
X069837Y028205D01*
X076687Y024458D02*
X076689Y024508D01*
X076695Y024558D01*
X076705Y024607D01*
X076719Y024655D01*
X076736Y024702D01*
X076757Y024747D01*
X076782Y024791D01*
X076810Y024832D01*
X076842Y024871D01*
X076876Y024908D01*
X076913Y024942D01*
X076953Y024972D01*
X076995Y024999D01*
X077039Y025023D01*
X077085Y025044D01*
X077132Y025060D01*
X077180Y025073D01*
X077230Y025082D01*
X077279Y025087D01*
X077330Y025088D01*
X077380Y025085D01*
X077429Y025078D01*
X077478Y025067D01*
X077526Y025052D01*
X077572Y025034D01*
X077617Y025012D01*
X077660Y024986D01*
X077701Y024957D01*
X077740Y024925D01*
X077776Y024890D01*
X077808Y024852D01*
X077838Y024812D01*
X077865Y024769D01*
X077888Y024725D01*
X077907Y024679D01*
X077923Y024631D01*
X077935Y024582D01*
X077943Y024533D01*
X077947Y024483D01*
X077947Y024433D01*
X077943Y024383D01*
X077935Y024334D01*
X077923Y024285D01*
X077907Y024237D01*
X077888Y024191D01*
X077865Y024147D01*
X077838Y024104D01*
X077808Y024064D01*
X077776Y024026D01*
X077740Y023991D01*
X077701Y023959D01*
X077660Y023930D01*
X077617Y023904D01*
X077572Y023882D01*
X077526Y023864D01*
X077478Y023849D01*
X077429Y023838D01*
X077380Y023831D01*
X077330Y023828D01*
X077279Y023829D01*
X077230Y023834D01*
X077180Y023843D01*
X077132Y023856D01*
X077085Y023872D01*
X077039Y023893D01*
X076995Y023917D01*
X076953Y023944D01*
X076913Y023974D01*
X076876Y024008D01*
X076842Y024045D01*
X076810Y024084D01*
X076782Y024125D01*
X076757Y024169D01*
X076736Y024214D01*
X076719Y024261D01*
X076705Y024309D01*
X076695Y024358D01*
X076689Y024408D01*
X076687Y024458D01*
X079876Y013638D02*
X079876Y012838D01*
X079476Y013238D02*
X080276Y013238D01*
X074961Y012647D02*
X074161Y012647D01*
X074561Y012247D02*
X074561Y013047D01*
X078499Y010291D02*
X078499Y009491D01*
X078099Y009891D02*
X078899Y009891D01*
X080461Y009891D02*
X081261Y009891D01*
X080861Y009491D02*
X080861Y010291D01*
X073931Y007923D02*
X073933Y007973D01*
X073939Y008023D01*
X073949Y008072D01*
X073963Y008120D01*
X073980Y008167D01*
X074001Y008212D01*
X074026Y008256D01*
X074054Y008297D01*
X074086Y008336D01*
X074120Y008373D01*
X074157Y008407D01*
X074197Y008437D01*
X074239Y008464D01*
X074283Y008488D01*
X074329Y008509D01*
X074376Y008525D01*
X074424Y008538D01*
X074474Y008547D01*
X074523Y008552D01*
X074574Y008553D01*
X074624Y008550D01*
X074673Y008543D01*
X074722Y008532D01*
X074770Y008517D01*
X074816Y008499D01*
X074861Y008477D01*
X074904Y008451D01*
X074945Y008422D01*
X074984Y008390D01*
X075020Y008355D01*
X075052Y008317D01*
X075082Y008277D01*
X075109Y008234D01*
X075132Y008190D01*
X075151Y008144D01*
X075167Y008096D01*
X075179Y008047D01*
X075187Y007998D01*
X075191Y007948D01*
X075191Y007898D01*
X075187Y007848D01*
X075179Y007799D01*
X075167Y007750D01*
X075151Y007702D01*
X075132Y007656D01*
X075109Y007612D01*
X075082Y007569D01*
X075052Y007529D01*
X075020Y007491D01*
X074984Y007456D01*
X074945Y007424D01*
X074904Y007395D01*
X074861Y007369D01*
X074816Y007347D01*
X074770Y007329D01*
X074722Y007314D01*
X074673Y007303D01*
X074624Y007296D01*
X074574Y007293D01*
X074523Y007294D01*
X074474Y007299D01*
X074424Y007308D01*
X074376Y007321D01*
X074329Y007337D01*
X074283Y007358D01*
X074239Y007382D01*
X074197Y007409D01*
X074157Y007439D01*
X074120Y007473D01*
X074086Y007510D01*
X074054Y007549D01*
X074026Y007590D01*
X074001Y007634D01*
X073980Y007679D01*
X073963Y007726D01*
X073949Y007774D01*
X073939Y007823D01*
X073933Y007873D01*
X073931Y007923D01*
X078099Y006348D02*
X078899Y006348D01*
X078499Y005948D02*
X078499Y006748D01*
X080461Y006348D02*
X081261Y006348D01*
X080861Y005948D02*
X080861Y006748D01*
D11*
X082372Y006683D02*
X082372Y007003D01*
X082479Y007110D01*
X082799Y007110D01*
X082799Y006683D02*
X082372Y006683D01*
X082479Y006465D02*
X082799Y006465D01*
X082799Y006145D01*
X082692Y006038D01*
X082586Y006145D01*
X082586Y006465D01*
X082479Y006465D02*
X082372Y006359D01*
X082372Y006145D01*
X082159Y005821D02*
X082159Y005394D01*
X082799Y005394D01*
X082479Y005394D02*
X082479Y005607D01*
X077501Y007130D02*
X076860Y007130D01*
X076860Y007451D01*
X076967Y007558D01*
X077181Y007558D01*
X077287Y007451D01*
X077287Y007130D01*
X077287Y006913D02*
X076967Y006913D01*
X076860Y006806D01*
X076967Y006699D01*
X077287Y006699D01*
X077287Y006486D02*
X076860Y006486D01*
X076860Y006593D01*
X076967Y006699D01*
X076967Y006268D02*
X077074Y006268D01*
X077074Y005841D01*
X077181Y005841D02*
X076967Y005841D01*
X076860Y005948D01*
X076860Y006162D01*
X076967Y006268D01*
X077287Y006162D02*
X077287Y005948D01*
X077181Y005841D01*
X077287Y005410D02*
X076647Y005410D01*
X076647Y005197D02*
X076647Y005624D01*
X076647Y008346D02*
X077287Y008773D01*
X077287Y008346D02*
X076647Y008773D01*
X076860Y009636D02*
X076860Y009742D01*
X076967Y009849D01*
X076860Y009956D01*
X076967Y010063D01*
X077287Y010063D01*
X077287Y009849D02*
X076967Y009849D01*
X076860Y009636D02*
X077287Y009636D01*
X077181Y010280D02*
X077074Y010387D01*
X077074Y010707D01*
X076967Y010707D02*
X077287Y010707D01*
X077287Y010387D01*
X077181Y010280D01*
X076860Y010387D02*
X076860Y010600D01*
X076967Y010707D01*
X076860Y010925D02*
X077287Y011352D01*
X077287Y010925D02*
X076860Y011352D01*
X076561Y011247D02*
X076561Y011797D01*
X072561Y011797D01*
X072561Y013497D01*
X076561Y013497D01*
X076561Y011797D01*
X076561Y011247D02*
X072561Y011247D01*
X072561Y011797D01*
X072361Y013447D02*
X072561Y013497D01*
X072561Y013847D01*
X072561Y014197D01*
X076561Y014197D01*
X076561Y013497D01*
X075351Y013847D02*
X075353Y013875D01*
X075359Y013902D01*
X075368Y013928D01*
X075381Y013953D01*
X075398Y013976D01*
X075417Y013996D01*
X075439Y014013D01*
X075463Y014027D01*
X075489Y014037D01*
X075516Y014044D01*
X075544Y014047D01*
X075572Y014046D01*
X075599Y014041D01*
X075626Y014032D01*
X075651Y014020D01*
X075674Y014005D01*
X075695Y013986D01*
X075713Y013965D01*
X075728Y013941D01*
X075739Y013915D01*
X075747Y013889D01*
X075751Y013861D01*
X075751Y013833D01*
X075747Y013805D01*
X075739Y013779D01*
X075728Y013753D01*
X075713Y013729D01*
X075695Y013708D01*
X075674Y013689D01*
X075651Y013674D01*
X075626Y013662D01*
X075599Y013653D01*
X075572Y013648D01*
X075544Y013647D01*
X075516Y013650D01*
X075489Y013657D01*
X075463Y013667D01*
X075439Y013681D01*
X075417Y013698D01*
X075398Y013718D01*
X075381Y013741D01*
X075368Y013766D01*
X075359Y013792D01*
X075353Y013819D01*
X075351Y013847D01*
X073371Y013847D02*
X073373Y013875D01*
X073379Y013902D01*
X073388Y013928D01*
X073401Y013953D01*
X073418Y013976D01*
X073437Y013996D01*
X073459Y014013D01*
X073483Y014027D01*
X073509Y014037D01*
X073536Y014044D01*
X073564Y014047D01*
X073592Y014046D01*
X073619Y014041D01*
X073646Y014032D01*
X073671Y014020D01*
X073694Y014005D01*
X073715Y013986D01*
X073733Y013965D01*
X073748Y013941D01*
X073759Y013915D01*
X073767Y013889D01*
X073771Y013861D01*
X073771Y013833D01*
X073767Y013805D01*
X073759Y013779D01*
X073748Y013753D01*
X073733Y013729D01*
X073715Y013708D01*
X073694Y013689D01*
X073671Y013674D01*
X073646Y013662D01*
X073619Y013653D01*
X073592Y013648D01*
X073564Y013647D01*
X073536Y013650D01*
X073509Y013657D01*
X073483Y013667D01*
X073459Y013681D01*
X073437Y013698D01*
X073418Y013718D01*
X073401Y013741D01*
X073388Y013766D01*
X073379Y013792D01*
X073373Y013819D01*
X073371Y013847D01*
X072561Y013847D02*
X072361Y013897D01*
X072361Y013447D01*
X073214Y014646D02*
X073214Y015286D01*
X073214Y014966D02*
X073641Y014966D01*
X073858Y014966D02*
X073965Y015073D01*
X074178Y015073D01*
X074285Y014966D01*
X074285Y014859D01*
X073858Y014859D01*
X073858Y014752D02*
X073858Y014966D01*
X073858Y014752D02*
X073965Y014646D01*
X074178Y014646D01*
X074503Y014752D02*
X074609Y014859D01*
X074930Y014859D01*
X074930Y014966D02*
X074930Y014646D01*
X074609Y014646D01*
X074503Y014752D01*
X074609Y015073D02*
X074823Y015073D01*
X074930Y014966D01*
X075147Y015073D02*
X075361Y015073D01*
X075254Y015179D02*
X075254Y014752D01*
X075361Y014646D01*
X075577Y014752D02*
X075577Y014966D01*
X075684Y015073D01*
X075897Y015073D01*
X076004Y014966D01*
X076004Y014859D01*
X075577Y014859D01*
X075577Y014752D02*
X075684Y014646D01*
X075897Y014646D01*
X076221Y014646D02*
X076221Y015073D01*
X076221Y014859D02*
X076435Y015073D01*
X076542Y015073D01*
X078135Y015286D02*
X078562Y014646D01*
X078135Y014646D02*
X078562Y015286D01*
X079424Y015073D02*
X079531Y015073D01*
X079637Y014966D01*
X079744Y015073D01*
X079851Y014966D01*
X079851Y014646D01*
X079637Y014646D02*
X079637Y014966D01*
X079424Y015073D02*
X079424Y014646D01*
X080068Y014752D02*
X080068Y014966D01*
X080175Y015073D01*
X080389Y015073D01*
X080495Y014966D01*
X080495Y014752D01*
X080389Y014646D01*
X080175Y014646D01*
X080068Y014752D01*
X080713Y015073D02*
X080927Y015073D01*
X080820Y015179D02*
X080820Y014752D01*
X080927Y014646D01*
X081143Y014752D02*
X081249Y014646D01*
X081463Y014646D01*
X081570Y014752D01*
X081570Y014966D01*
X081463Y015073D01*
X081249Y015073D01*
X081143Y014966D01*
X081143Y014752D01*
X081787Y014646D02*
X081787Y015073D01*
X082001Y015073D02*
X082108Y015073D01*
X082001Y015073D02*
X081787Y014859D01*
X073641Y014646D02*
X073641Y015286D01*
X082372Y011227D02*
X082479Y011334D01*
X082799Y011334D01*
X082799Y010907D02*
X082372Y010907D01*
X082372Y011227D01*
X082372Y010584D02*
X082799Y010584D01*
X082799Y010690D02*
X082799Y010477D01*
X082799Y010259D02*
X082479Y010259D01*
X082372Y010153D01*
X082479Y010046D01*
X082799Y010046D01*
X082799Y009832D02*
X082372Y009832D01*
X082372Y009939D01*
X082479Y010046D01*
X082372Y010477D02*
X082372Y010584D01*
X082159Y010584D02*
X082052Y010584D01*
X082159Y008970D02*
X082265Y008970D01*
X082692Y008543D01*
X082799Y008543D01*
X082799Y008970D01*
X082159Y008970D02*
X082159Y008543D01*
X043992Y026850D02*
X043992Y027277D01*
X043992Y027064D02*
X044205Y027277D01*
X044312Y027277D01*
X043774Y027171D02*
X043668Y027277D01*
X043454Y027277D01*
X043347Y027171D01*
X043347Y026957D01*
X043454Y026850D01*
X043668Y026850D01*
X043774Y026957D01*
X043774Y027171D01*
X043131Y027277D02*
X042918Y027277D01*
X043024Y027384D02*
X043024Y026957D01*
X043131Y026850D01*
X042700Y026957D02*
X042593Y026850D01*
X042380Y026850D01*
X042273Y026957D01*
X042273Y027171D01*
X042380Y027277D01*
X042593Y027277D01*
X042700Y027171D01*
X042700Y026957D01*
X042056Y026850D02*
X042056Y027171D01*
X041949Y027277D01*
X041842Y027171D01*
X041842Y026850D01*
X041629Y026850D02*
X041629Y027277D01*
X041735Y027277D01*
X041842Y027171D01*
X040767Y027491D02*
X040340Y026850D01*
X040767Y026850D02*
X040340Y027491D01*
X029886Y027171D02*
X029886Y026957D01*
X029779Y026850D01*
X029459Y026850D01*
X029459Y026637D02*
X029459Y027277D01*
X029779Y027277D01*
X029886Y027171D01*
X029241Y027171D02*
X029134Y027277D01*
X028921Y027277D01*
X028814Y027171D01*
X028814Y026957D01*
X028921Y026850D01*
X029134Y026850D01*
X029241Y026957D01*
X029241Y027171D01*
X028598Y027277D02*
X028384Y027277D01*
X028491Y027384D02*
X028491Y026957D01*
X028598Y026850D01*
X028167Y026957D02*
X028060Y026850D01*
X027847Y026850D01*
X027740Y026957D01*
X027847Y027171D02*
X028060Y027171D01*
X028167Y027064D01*
X028167Y026957D01*
X027847Y027171D02*
X027740Y027277D01*
X027740Y027384D01*
X027847Y027491D01*
X028060Y027491D01*
X028167Y027384D01*
X026878Y027277D02*
X026558Y027277D01*
X026451Y027171D01*
X026451Y026957D01*
X026558Y026850D01*
X026878Y026850D01*
X026878Y027491D01*
X026233Y027171D02*
X026233Y026850D01*
X026233Y027171D02*
X026127Y027277D01*
X025806Y027277D01*
X025806Y026850D01*
X025589Y026850D02*
X025162Y026850D01*
X025162Y027491D01*
X025589Y027491D01*
X025375Y027171D02*
X025162Y027171D01*
X024300Y027384D02*
X023873Y026957D01*
X023873Y026850D01*
X024300Y026850D01*
X024300Y027384D02*
X024300Y027491D01*
X023873Y027491D01*
X023655Y027491D02*
X023228Y026850D01*
X023011Y026850D02*
X022584Y027491D01*
X023011Y027491D02*
X022584Y026850D01*
X011672Y026096D02*
X011565Y026096D01*
X011352Y025883D01*
X011352Y026096D02*
X011352Y025669D01*
X011134Y025776D02*
X011028Y025669D01*
X010814Y025669D01*
X010707Y025776D01*
X010707Y025990D01*
X010814Y026096D01*
X011028Y026096D01*
X011134Y025990D01*
X011134Y025776D01*
X010490Y025776D02*
X010383Y025669D01*
X010063Y025669D01*
X009845Y025669D02*
X009845Y025990D01*
X009739Y026096D01*
X009418Y026096D01*
X009418Y025669D01*
X009201Y025883D02*
X008774Y025883D01*
X008774Y025990D02*
X008881Y026096D01*
X009094Y026096D01*
X009201Y025990D01*
X009201Y025883D01*
X009094Y025669D02*
X008881Y025669D01*
X008774Y025776D01*
X008774Y025990D01*
X008556Y025883D02*
X008556Y025776D01*
X008449Y025669D01*
X008236Y025669D01*
X008129Y025776D01*
X008236Y025990D02*
X008449Y025990D01*
X008556Y025883D01*
X008556Y026203D02*
X008449Y026310D01*
X008236Y026310D01*
X008129Y026203D01*
X008129Y026096D01*
X008236Y025990D01*
X007267Y025990D02*
X007160Y026096D01*
X006840Y026096D01*
X006840Y025456D01*
X006840Y025669D02*
X007160Y025669D01*
X007267Y025776D01*
X007267Y025990D01*
X006623Y025990D02*
X006623Y025669D01*
X006409Y025669D02*
X006409Y025990D01*
X006516Y026096D01*
X006623Y025990D01*
X006409Y025990D02*
X006302Y026096D01*
X006196Y026096D01*
X006196Y025669D01*
X005978Y025883D02*
X005551Y025883D01*
X005551Y025990D02*
X005658Y026096D01*
X005871Y026096D01*
X005978Y025990D01*
X005978Y025883D01*
X005871Y025669D02*
X005658Y025669D01*
X005551Y025776D01*
X005551Y025990D01*
X005333Y026310D02*
X004906Y026310D01*
X005120Y026310D02*
X005120Y025669D01*
X002780Y024099D02*
X002330Y024099D01*
X002380Y023899D01*
X000680Y023899D01*
X000680Y019899D01*
X000130Y019899D01*
X000130Y023899D01*
X000680Y023899D01*
X002380Y023899D02*
X002380Y019899D01*
X000680Y019899D01*
X002380Y019899D02*
X003080Y019899D01*
X003080Y023899D01*
X002730Y023899D01*
X002380Y023899D01*
X002730Y023899D02*
X002780Y024099D01*
X002530Y022889D02*
X002532Y022917D01*
X002538Y022944D01*
X002547Y022970D01*
X002560Y022995D01*
X002577Y023018D01*
X002596Y023038D01*
X002618Y023055D01*
X002642Y023069D01*
X002668Y023079D01*
X002695Y023086D01*
X002723Y023089D01*
X002751Y023088D01*
X002778Y023083D01*
X002805Y023074D01*
X002830Y023062D01*
X002853Y023047D01*
X002874Y023028D01*
X002892Y023007D01*
X002907Y022983D01*
X002918Y022957D01*
X002926Y022931D01*
X002930Y022903D01*
X002930Y022875D01*
X002926Y022847D01*
X002918Y022821D01*
X002907Y022795D01*
X002892Y022771D01*
X002874Y022750D01*
X002853Y022731D01*
X002830Y022716D01*
X002805Y022704D01*
X002778Y022695D01*
X002751Y022690D01*
X002723Y022689D01*
X002695Y022692D01*
X002668Y022699D01*
X002642Y022709D01*
X002618Y022723D01*
X002596Y022740D01*
X002577Y022760D01*
X002560Y022783D01*
X002547Y022808D01*
X002538Y022834D01*
X002532Y022861D01*
X002530Y022889D01*
X005103Y022176D02*
X005103Y021535D01*
X005103Y021856D02*
X005530Y021856D01*
X005748Y021856D02*
X005855Y021962D01*
X006068Y021962D01*
X006175Y021856D01*
X006175Y021749D01*
X005748Y021749D01*
X005748Y021642D02*
X005748Y021856D01*
X005748Y021642D02*
X005855Y021535D01*
X006068Y021535D01*
X006392Y021642D02*
X006499Y021749D01*
X006819Y021749D01*
X006819Y021856D02*
X006819Y021535D01*
X006499Y021535D01*
X006392Y021642D01*
X006713Y021962D02*
X006819Y021856D01*
X006713Y021962D02*
X006499Y021962D01*
X007037Y021962D02*
X007250Y021962D01*
X007144Y022069D02*
X007144Y021642D01*
X007250Y021535D01*
X007467Y021642D02*
X007467Y021856D01*
X007573Y021962D01*
X007787Y021962D01*
X007894Y021856D01*
X007894Y021749D01*
X007467Y021749D01*
X007467Y021642D02*
X007573Y021535D01*
X007787Y021535D01*
X008111Y021535D02*
X008111Y021962D01*
X008111Y021749D02*
X008325Y021962D01*
X008431Y021962D01*
X005530Y022176D02*
X005530Y021535D01*
X002530Y020909D02*
X002532Y020937D01*
X002538Y020964D01*
X002547Y020990D01*
X002560Y021015D01*
X002577Y021038D01*
X002596Y021058D01*
X002618Y021075D01*
X002642Y021089D01*
X002668Y021099D01*
X002695Y021106D01*
X002723Y021109D01*
X002751Y021108D01*
X002778Y021103D01*
X002805Y021094D01*
X002830Y021082D01*
X002853Y021067D01*
X002874Y021048D01*
X002892Y021027D01*
X002907Y021003D01*
X002918Y020977D01*
X002926Y020951D01*
X002930Y020923D01*
X002930Y020895D01*
X002926Y020867D01*
X002918Y020841D01*
X002907Y020815D01*
X002892Y020791D01*
X002874Y020770D01*
X002853Y020751D01*
X002830Y020736D01*
X002805Y020724D01*
X002778Y020715D01*
X002751Y020710D01*
X002723Y020709D01*
X002695Y020712D01*
X002668Y020719D01*
X002642Y020729D01*
X002618Y020743D01*
X002596Y020760D01*
X002577Y020780D01*
X002560Y020803D01*
X002547Y020828D01*
X002538Y020854D01*
X002532Y020881D01*
X002530Y020909D01*
X010063Y025990D02*
X010170Y026096D01*
X010490Y026096D01*
X010383Y025883D02*
X010170Y025883D01*
X010063Y025990D01*
X010383Y025883D02*
X010490Y025776D01*
X008771Y027531D02*
X008664Y027424D01*
X008558Y027424D01*
X008771Y027531D02*
X008771Y028065D01*
X008451Y028065D01*
X008344Y027958D01*
X008344Y027745D01*
X008451Y027638D01*
X008771Y027638D01*
X008127Y027638D02*
X008127Y027958D01*
X008020Y028065D01*
X007700Y028065D01*
X007700Y027638D01*
X007483Y027638D02*
X007270Y027638D01*
X007377Y027638D02*
X007377Y028065D01*
X007270Y028065D01*
X007377Y028278D02*
X007377Y028385D01*
X006947Y028278D02*
X006947Y027638D01*
X006840Y027638D02*
X007054Y027638D01*
X006623Y027745D02*
X006623Y027958D01*
X006516Y028065D01*
X006302Y028065D01*
X006196Y027958D01*
X006196Y027745D01*
X006302Y027638D01*
X006516Y027638D01*
X006623Y027745D01*
X005978Y027745D02*
X005978Y027958D01*
X005871Y028065D01*
X005658Y028065D01*
X005551Y027958D01*
X005551Y027745D01*
X005658Y027638D01*
X005871Y027638D01*
X005978Y027745D01*
X005333Y027745D02*
X005227Y027638D01*
X005013Y027638D01*
X004906Y027745D01*
X004906Y028172D01*
X005013Y028278D01*
X005227Y028278D01*
X005333Y028172D01*
X006840Y028278D02*
X006947Y028278D01*
X009633Y028278D02*
X009633Y027638D01*
X009633Y027958D02*
X009847Y027958D01*
X009633Y028278D02*
X010060Y028278D01*
X010384Y028065D02*
X010598Y028065D01*
X010705Y027958D01*
X010705Y027638D01*
X010384Y027638D01*
X010278Y027745D01*
X010384Y027851D01*
X010705Y027851D01*
X010922Y027638D02*
X010922Y028065D01*
X011243Y028065D01*
X011349Y027958D01*
X011349Y027638D01*
X060057Y027745D02*
X060164Y027638D01*
X060377Y027638D01*
X060484Y027745D01*
X060702Y027745D02*
X060808Y027638D01*
X061022Y027638D01*
X061129Y027745D01*
X061129Y027958D01*
X061022Y028065D01*
X060808Y028065D01*
X060702Y027958D01*
X060702Y027745D01*
X061346Y027745D02*
X061346Y027958D01*
X061453Y028065D01*
X061666Y028065D01*
X061773Y027958D01*
X061773Y027745D01*
X061666Y027638D01*
X061453Y027638D01*
X061346Y027745D01*
X061991Y027638D02*
X062204Y027638D01*
X062098Y027638D02*
X062098Y028278D01*
X061991Y028278D01*
X062420Y028065D02*
X062527Y028065D01*
X062527Y027638D01*
X062420Y027638D02*
X062634Y027638D01*
X062850Y027638D02*
X062850Y028065D01*
X063170Y028065D01*
X063277Y027958D01*
X063277Y027638D01*
X063495Y027745D02*
X063601Y027638D01*
X063922Y027638D01*
X063922Y027531D02*
X063922Y028065D01*
X063601Y028065D01*
X063495Y027958D01*
X063495Y027745D01*
X063708Y027424D02*
X063815Y027424D01*
X063922Y027531D01*
X064784Y027638D02*
X064784Y028278D01*
X065211Y028278D01*
X064997Y027958D02*
X064784Y027958D01*
X065428Y027745D02*
X065535Y027851D01*
X065855Y027851D01*
X065855Y027958D02*
X065855Y027638D01*
X065535Y027638D01*
X065428Y027745D01*
X065535Y028065D02*
X065749Y028065D01*
X065855Y027958D01*
X066073Y028065D02*
X066393Y028065D01*
X066500Y027958D01*
X066500Y027638D01*
X066073Y027638D02*
X066073Y028065D01*
X062527Y028278D02*
X062527Y028385D01*
X060484Y028172D02*
X060377Y028278D01*
X060164Y028278D01*
X060057Y028172D01*
X060057Y027745D01*
D12*
X041336Y022163D02*
X041336Y021242D01*
X040876Y021242D01*
X040722Y021396D01*
X040722Y021703D01*
X040876Y021856D01*
X041336Y021856D01*
X040415Y021856D02*
X040262Y021856D01*
X039955Y021549D01*
X039955Y021242D02*
X039955Y021856D01*
X039648Y021703D02*
X039648Y021242D01*
X039188Y021242D01*
X039034Y021396D01*
X039188Y021549D01*
X039648Y021549D01*
X039648Y021703D02*
X039495Y021856D01*
X039188Y021856D01*
X038727Y021703D02*
X038727Y021396D01*
X038574Y021242D01*
X038267Y021242D01*
X038114Y021396D01*
X038114Y021703D01*
X038267Y021856D01*
X038574Y021856D01*
X038727Y021703D01*
X037807Y021856D02*
X037807Y022010D01*
X037653Y022163D01*
X037193Y022163D01*
X037193Y021242D01*
X037653Y021242D01*
X037807Y021396D01*
X037807Y021549D01*
X037653Y021703D01*
X037193Y021703D01*
X037653Y021703D02*
X037807Y021856D01*
X035965Y021703D02*
X035965Y021549D01*
X035351Y021549D01*
X035351Y021396D02*
X035351Y021703D01*
X035505Y021856D01*
X035812Y021856D01*
X035965Y021703D01*
X035505Y021242D02*
X035351Y021396D01*
X035505Y021242D02*
X035812Y021242D01*
X035044Y021856D02*
X034891Y021856D01*
X034584Y021549D01*
X034584Y021242D02*
X034584Y021856D01*
X034123Y021856D02*
X034123Y021242D01*
X033970Y021242D02*
X034277Y021242D01*
X033663Y021242D02*
X033356Y021549D01*
X033049Y021242D01*
X033049Y022163D01*
X033663Y022163D02*
X033663Y021242D01*
X033970Y021856D02*
X034123Y021856D01*
X034123Y022163D02*
X034123Y022317D01*
X031821Y021856D02*
X031821Y021549D01*
X031515Y021242D01*
X031208Y021396D02*
X031054Y021242D01*
X030747Y021242D01*
X030594Y021396D01*
X031208Y022010D01*
X031208Y021396D01*
X030594Y021396D02*
X030594Y022010D01*
X030747Y022163D01*
X031054Y022163D01*
X031208Y022010D01*
X031515Y022163D02*
X031821Y021856D01*
X030287Y021242D02*
X029673Y021242D01*
X029980Y021242D02*
X029980Y022163D01*
X029673Y021856D01*
X028752Y022163D02*
X028752Y021242D01*
X029366Y021242D01*
X028445Y021242D02*
X028138Y021549D01*
X028138Y021856D01*
X028445Y022163D01*
X026911Y022010D02*
X026911Y021856D01*
X026297Y021242D01*
X026911Y021242D01*
X025990Y021242D02*
X025529Y021242D01*
X025376Y021396D01*
X025376Y021856D01*
X025069Y021703D02*
X024916Y021856D01*
X024609Y021856D01*
X024455Y021703D01*
X024455Y021396D01*
X024609Y021242D01*
X024916Y021242D01*
X025069Y021396D01*
X025069Y021703D01*
X024148Y021856D02*
X024148Y022010D01*
X023995Y022163D01*
X023534Y022163D01*
X023534Y021242D01*
X023995Y021242D01*
X024148Y021396D01*
X024148Y021549D01*
X023995Y021703D01*
X023534Y021703D01*
X023227Y021856D02*
X023227Y021089D01*
X023074Y020935D01*
X022921Y020935D01*
X022767Y021242D02*
X023227Y021242D01*
X022767Y021242D02*
X022614Y021396D01*
X022614Y021856D01*
X022307Y021703D02*
X022307Y021242D01*
X021693Y021242D02*
X021693Y021856D01*
X022153Y021856D01*
X022307Y021703D01*
X021232Y021856D02*
X021232Y021242D01*
X021079Y021242D02*
X021386Y021242D01*
X020465Y021242D02*
X020465Y022163D01*
X020158Y022163D02*
X020772Y022163D01*
X021079Y021856D02*
X021232Y021856D01*
X021232Y022163D02*
X021232Y022317D01*
X023995Y021703D02*
X024148Y021856D01*
X025990Y021856D02*
X025990Y021089D01*
X025836Y020935D01*
X025683Y020935D01*
X026297Y022010D02*
X026450Y022163D01*
X026757Y022163D01*
X026911Y022010D01*
D13*
X003184Y024281D02*
X002632Y024281D01*
X002632Y024517D01*
X002947Y024517D01*
X002947Y025285D01*
X003184Y025285D01*
X003184Y025600D01*
X002947Y025600D01*
X002947Y026368D01*
X002632Y026368D01*
X002632Y026604D01*
X003184Y026604D01*
X003184Y025600D01*
X003184Y025285D02*
X003184Y024281D01*
X002632Y024281D02*
X002278Y024281D01*
X002278Y024517D01*
X002632Y024517D01*
X002278Y024517D02*
X001648Y024517D01*
X001648Y026368D01*
X002278Y026368D01*
X002278Y026604D01*
X002632Y026604D01*
X002632Y026643D02*
X002632Y026879D01*
X002947Y026879D01*
X002947Y027647D01*
X003184Y027647D01*
X003184Y027962D01*
X002947Y027962D01*
X002947Y028730D01*
X002632Y028730D01*
X002632Y028966D01*
X003184Y028966D01*
X003184Y027962D01*
X003184Y027647D02*
X003184Y026643D01*
X002632Y026643D01*
X002278Y026643D01*
X002278Y026879D01*
X002632Y026879D01*
X002278Y026879D02*
X001648Y026879D01*
X001648Y028730D01*
X002278Y028730D01*
X002278Y028966D01*
X002632Y028966D01*
X002632Y028730D02*
X002278Y028730D01*
X002278Y028966D02*
X001412Y028966D01*
X001412Y026643D01*
X002278Y026643D01*
X002278Y026604D02*
X001412Y026604D01*
X001412Y024281D01*
X002278Y024281D01*
X002555Y023428D02*
X002895Y023428D01*
X002895Y023315D02*
X002895Y023542D01*
X002668Y023315D02*
X002555Y023428D01*
X002611Y021542D02*
X002555Y021485D01*
X002555Y021372D01*
X002611Y021315D01*
X002611Y021542D02*
X002668Y021542D01*
X002895Y021315D01*
X002895Y021542D01*
X002632Y026368D02*
X002278Y026368D01*
X068735Y026643D02*
X069601Y026643D01*
X069601Y026879D01*
X069955Y026879D01*
X069955Y026643D01*
X070506Y026643D01*
X070506Y027647D01*
X070270Y027647D01*
X070270Y026879D01*
X069955Y026879D01*
X069955Y026643D02*
X069601Y026643D01*
X069601Y026879D02*
X068971Y026879D01*
X068971Y028730D01*
X069601Y028730D01*
X069601Y028966D01*
X069955Y028966D01*
X069955Y028730D01*
X070270Y028730D01*
X070270Y027962D01*
X070506Y027962D01*
X070506Y028966D01*
X069955Y028966D01*
X069955Y028730D02*
X069601Y028730D01*
X069601Y028966D02*
X068735Y028966D01*
X068735Y026643D01*
X070506Y027647D02*
X070506Y027962D01*
X072950Y014012D02*
X072950Y013672D01*
X073063Y013672D02*
X072836Y013672D01*
X072836Y013899D02*
X072950Y014012D01*
X074836Y013956D02*
X074893Y014012D01*
X075007Y014012D01*
X075063Y013956D01*
X075063Y013899D01*
X074836Y013672D01*
X075063Y013672D01*
D14*
X074561Y012647D03*
D15*
X077436Y011902D02*
X082317Y011902D01*
X082317Y014166D01*
X077436Y014166D01*
X077436Y011902D01*
X077570Y011840D02*
X077570Y007942D01*
X079834Y007942D01*
X079834Y011840D01*
X077570Y011840D01*
X077593Y010915D02*
X077790Y010915D01*
X079955Y010915D02*
X080152Y010915D01*
X079933Y011840D02*
X079933Y007942D01*
X082196Y007942D01*
X082196Y011840D01*
X079933Y011840D01*
X081373Y013946D02*
X081373Y014143D01*
X078341Y014143D02*
X078341Y013946D01*
X077790Y008907D02*
X077593Y008907D01*
X079955Y008907D02*
X080152Y008907D01*
X079933Y007805D02*
X079933Y004891D01*
X082196Y004891D01*
X082196Y007805D01*
X079933Y007805D01*
X079834Y007805D02*
X077570Y007805D01*
X077570Y004891D01*
X079834Y004891D01*
X079834Y007805D01*
X039745Y026075D02*
X034863Y026075D01*
X034863Y028339D01*
X039745Y028339D01*
X039745Y026075D01*
X034778Y026075D02*
X034778Y028339D01*
X030880Y028339D01*
X030880Y026075D01*
X034778Y026075D01*
X033853Y028120D02*
X033853Y028316D01*
X031845Y028316D02*
X031845Y028120D01*
X035768Y028120D02*
X035768Y028316D01*
X038800Y028316D02*
X038800Y028120D01*
D16*
X077593Y006860D02*
X077790Y006860D01*
X077790Y005836D01*
X077593Y005836D01*
X079955Y005836D02*
X080152Y005836D01*
X080152Y006860D01*
X079955Y006860D01*
D17*
X001530Y021899D03*
D18*
X003565Y025817D02*
X003412Y025970D01*
X003872Y025970D01*
X003872Y025817D02*
X003872Y026124D01*
X003872Y028179D02*
X003872Y028486D01*
X003872Y028332D02*
X003412Y028332D01*
X003565Y028179D01*
X070735Y028332D02*
X071195Y028332D01*
X071195Y028179D02*
X071195Y028486D01*
X070888Y028179D02*
X070735Y028332D01*
M02*
