G75*
%MOIN*%
%OFA0B0*%
%FSLAX24Y24*%
%IPPOS*%
%LPD*%
%AMOC8*
5,1,8,0,0,1.08239X$1,22.5*
%
%ADD10R,0.0512X0.0591*%
%ADD11R,0.1000X0.2000*%
%ADD12C,0.0295*%
%ADD13C,0.0197*%
D10*
X026592Y016198D03*
X027340Y016198D03*
D11*
X007383Y021950D03*
X006596Y021950D03*
X006596Y024706D03*
X007383Y024706D03*
X006596Y019194D03*
X006596Y016439D03*
D12*
X007580Y001675D02*
X046163Y001675D01*
X046163Y002462D01*
X008368Y002462D01*
X008368Y003250D01*
X046163Y003250D01*
X046163Y004037D01*
X008368Y004037D01*
X008368Y004824D01*
X046163Y004824D01*
X046163Y005612D01*
X008368Y005612D01*
X008368Y006399D01*
X046163Y006399D01*
X046163Y007187D01*
X008368Y007187D01*
X008368Y007974D01*
X046163Y007974D01*
X046163Y008761D01*
X008368Y008761D01*
X008368Y009549D01*
X046163Y009549D01*
X046163Y010336D01*
X008368Y010336D01*
X008368Y011124D01*
X046163Y011124D01*
X046163Y011911D01*
X008368Y011911D01*
X008368Y012698D01*
X046163Y012698D01*
X046163Y013486D01*
X037108Y013486D01*
X037108Y014273D01*
X046163Y014273D01*
X046163Y015061D01*
X037108Y015061D01*
X037108Y015848D01*
X046163Y015848D01*
X046163Y016635D01*
X029234Y016635D01*
X029234Y017423D01*
X046163Y017423D01*
X046163Y018210D01*
X029234Y018210D01*
X029234Y018998D01*
X046163Y018998D01*
X046163Y019785D01*
X008368Y019785D01*
X008368Y020572D01*
X046163Y020572D01*
X046163Y021360D01*
X008565Y021360D01*
X008565Y022147D01*
X046163Y022147D01*
X046163Y022935D01*
X008565Y022935D01*
X008565Y023722D01*
X046163Y023722D01*
X046163Y024509D01*
X037895Y024509D01*
X037895Y025297D01*
X046163Y025297D01*
X046163Y026084D01*
X037895Y026084D01*
X037895Y026872D01*
X046163Y026872D01*
X046163Y027659D01*
X037108Y027659D01*
X037108Y024509D01*
X020179Y024509D01*
X020179Y025297D01*
X034352Y025297D01*
X034352Y026084D01*
X020179Y026084D01*
X020179Y026872D01*
X034352Y026872D01*
X034352Y027659D01*
X019391Y027659D01*
X019391Y024509D01*
X008565Y024509D01*
X008565Y025297D01*
X016635Y025297D01*
X016635Y026084D01*
X008368Y026084D01*
X008368Y026872D01*
X016635Y026872D01*
X016635Y027659D01*
X008368Y027659D01*
X008368Y028446D01*
X046163Y028446D01*
X046163Y029234D01*
X008368Y029234D01*
X008368Y030021D01*
X046163Y030021D01*
X046163Y030809D01*
X008368Y030809D01*
X008368Y031596D01*
X046163Y031596D01*
X046163Y032383D01*
X008368Y032383D01*
X008368Y033171D01*
X046163Y033171D01*
X046163Y033958D01*
X008368Y033958D01*
X008368Y034746D01*
X046163Y034746D01*
X046163Y035533D01*
X008368Y035533D01*
X008368Y036320D01*
X046163Y036320D01*
X046163Y037108D01*
X008368Y037108D01*
X008368Y037895D01*
X046163Y037895D01*
X046163Y038683D01*
X008368Y038683D01*
X008368Y039470D01*
X046163Y039470D01*
X046163Y040257D01*
X007580Y040257D01*
X007580Y024903D01*
X007383Y024706D01*
X006596Y024706D01*
X006596Y021950D02*
X007383Y021950D01*
X007580Y021754D01*
X007580Y018998D01*
X028446Y018998D01*
X028446Y015848D01*
X034352Y015848D01*
X034352Y013486D01*
X020179Y013486D01*
X020179Y014273D01*
X033171Y014273D01*
X033171Y015061D01*
X020179Y015061D01*
X020179Y015848D01*
X025297Y015848D01*
X025297Y016635D01*
X019391Y016635D01*
X019391Y013486D01*
X008368Y013486D01*
X008368Y014273D01*
X016635Y014273D01*
X016635Y015061D01*
X008368Y015061D01*
X008368Y015848D01*
X016635Y015848D01*
X016635Y016635D01*
X007974Y016635D01*
X007580Y016242D01*
X007580Y001675D01*
D13*
X006793Y016242D02*
X006596Y016439D01*
X006793Y016242D02*
X006793Y017423D01*
X026084Y017423D01*
X026592Y016915D01*
X026592Y016198D01*
X027340Y016198D02*
X027340Y017348D01*
X026478Y018210D01*
X006793Y018210D01*
X006399Y018604D01*
X006399Y018998D01*
X006596Y019194D01*
M02*
