%
M48
M72
T01C0.0400
T02C0.0900
T03C0.1260
%
T01
X5868Y5112
X6868Y5112
X7868Y5112
X8868Y5112
X9868Y5112
X10868Y5112
X10868Y6112
X9868Y6112
X8868Y6112
X7868Y6112
X6868Y6112
X5868Y6112
X6868Y10336
X7868Y10336
X8868Y10336
X9868Y10336
X14473Y6612
X14473Y5612
X14473Y4612
X20173Y4612
X20173Y6612
T02
X17423Y8212
X17423Y3012
T03
X1281Y1281
X1281Y9943
X19391Y9943
X19391Y1281
M30
