%
M48
M72
T01C0.0236
T02C0.0320
T03C0.0400
T04C0.0520
T05C0.1260
%
T01
X9207Y20915
X9207Y22490
X28892Y22490
X28892Y20915
X48577Y20915
X48577Y22490
X68262Y22490
X68262Y20915
X87947Y20915
X87947Y22490
T02
X97396Y27411
X97396Y28198
X65900Y28198
X65900Y27411
X2514Y27411
X2514Y28198
X2514Y25836
X2514Y25049
T03
X47577Y27411
X48577Y27411
X49577Y27411
X51552Y27411
X52552Y27411
X53552Y27411
X54552Y27411
X105936Y13238
X106936Y13238
X107936Y13238
X108936Y13238
X108420Y10891
X106058Y10891
X106058Y9891
X108420Y9891
X108420Y8891
X106058Y8891
X106058Y6848
X108420Y6848
X108420Y5848
X106058Y5848
T04
X1530Y20909
X1530Y22889
X101131Y12647
X103111Y12647
T05
X102121Y7923
X104876Y24458
X44247Y24458
X6451Y24458
M30
