G75*
%MOIN*%
%OFA0B0*%
%FSLAX24Y24*%
%IPPOS*%
%LPD*%
%AMOC8*
5,1,8,0,0,1.08239X$1,22.5*
%
%ADD10C,0.0000*%
%ADD11C,0.0040*%
%ADD12C,0.0060*%
D10*
X003080Y000100D02*
X003080Y006399D01*
X010954Y006399D01*
X010954Y000100D01*
X003080Y000100D01*
X003868Y003243D02*
X003868Y004043D01*
X003468Y003643D02*
X004268Y003643D01*
X005436Y003643D02*
X006236Y003643D01*
X005836Y003243D02*
X005836Y004043D01*
X007405Y003643D02*
X008205Y003643D01*
X007805Y003243D02*
X007805Y004043D01*
X009222Y005218D02*
X009224Y005265D01*
X009230Y005311D01*
X009240Y005357D01*
X009253Y005402D01*
X009271Y005445D01*
X009292Y005487D01*
X009316Y005527D01*
X009344Y005564D01*
X009375Y005599D01*
X009409Y005632D01*
X009445Y005661D01*
X009484Y005687D01*
X009525Y005710D01*
X009568Y005729D01*
X009612Y005745D01*
X009657Y005757D01*
X009703Y005765D01*
X009750Y005769D01*
X009796Y005769D01*
X009843Y005765D01*
X009889Y005757D01*
X009934Y005745D01*
X009978Y005729D01*
X010021Y005710D01*
X010062Y005687D01*
X010101Y005661D01*
X010137Y005632D01*
X010171Y005599D01*
X010202Y005564D01*
X010230Y005527D01*
X010254Y005487D01*
X010275Y005445D01*
X010293Y005402D01*
X010306Y005357D01*
X010316Y005311D01*
X010322Y005265D01*
X010324Y005218D01*
X010322Y005171D01*
X010316Y005125D01*
X010306Y005079D01*
X010293Y005034D01*
X010275Y004991D01*
X010254Y004949D01*
X010230Y004909D01*
X010202Y004872D01*
X010171Y004837D01*
X010137Y004804D01*
X010101Y004775D01*
X010062Y004749D01*
X010021Y004726D01*
X009978Y004707D01*
X009934Y004691D01*
X009889Y004679D01*
X009843Y004671D01*
X009796Y004667D01*
X009750Y004667D01*
X009703Y004671D01*
X009657Y004679D01*
X009612Y004691D01*
X009568Y004707D01*
X009525Y004726D01*
X009484Y004749D01*
X009445Y004775D01*
X009409Y004804D01*
X009375Y004837D01*
X009344Y004872D01*
X009316Y004909D01*
X009292Y004949D01*
X009271Y004991D01*
X009253Y005034D01*
X009240Y005079D01*
X009230Y005125D01*
X009224Y005171D01*
X009222Y005218D01*
X009222Y001281D02*
X009224Y001328D01*
X009230Y001374D01*
X009240Y001420D01*
X009253Y001465D01*
X009271Y001508D01*
X009292Y001550D01*
X009316Y001590D01*
X009344Y001627D01*
X009375Y001662D01*
X009409Y001695D01*
X009445Y001724D01*
X009484Y001750D01*
X009525Y001773D01*
X009568Y001792D01*
X009612Y001808D01*
X009657Y001820D01*
X009703Y001828D01*
X009750Y001832D01*
X009796Y001832D01*
X009843Y001828D01*
X009889Y001820D01*
X009934Y001808D01*
X009978Y001792D01*
X010021Y001773D01*
X010062Y001750D01*
X010101Y001724D01*
X010137Y001695D01*
X010171Y001662D01*
X010202Y001627D01*
X010230Y001590D01*
X010254Y001550D01*
X010275Y001508D01*
X010293Y001465D01*
X010306Y001420D01*
X010316Y001374D01*
X010322Y001328D01*
X010324Y001281D01*
X010322Y001234D01*
X010316Y001188D01*
X010306Y001142D01*
X010293Y001097D01*
X010275Y001054D01*
X010254Y001012D01*
X010230Y000972D01*
X010202Y000935D01*
X010171Y000900D01*
X010137Y000867D01*
X010101Y000838D01*
X010062Y000812D01*
X010021Y000789D01*
X009978Y000770D01*
X009934Y000754D01*
X009889Y000742D01*
X009843Y000734D01*
X009796Y000730D01*
X009750Y000730D01*
X009703Y000734D01*
X009657Y000742D01*
X009612Y000754D01*
X009568Y000770D01*
X009525Y000789D01*
X009484Y000812D01*
X009445Y000838D01*
X009409Y000867D01*
X009375Y000900D01*
X009344Y000935D01*
X009316Y000972D01*
X009292Y001012D01*
X009271Y001054D01*
X009253Y001097D01*
X009240Y001142D01*
X009230Y001188D01*
X009224Y001234D01*
X009222Y001281D01*
D11*
X008842Y001618D02*
X008689Y001618D01*
X008612Y001695D01*
X008612Y001925D01*
X008459Y001925D02*
X008919Y001925D01*
X008919Y001695D01*
X008842Y001618D01*
X008842Y002079D02*
X008689Y002079D01*
X008612Y002155D01*
X008612Y002309D01*
X008689Y002386D01*
X008842Y002386D01*
X008919Y002309D01*
X008919Y002155D01*
X008842Y002079D01*
X008919Y002539D02*
X008919Y002692D01*
X008996Y002616D02*
X008689Y002616D01*
X008612Y002539D01*
X008689Y002846D02*
X008612Y002923D01*
X008612Y003076D01*
X008689Y003153D01*
X008842Y003076D02*
X008842Y002923D01*
X008765Y002846D01*
X008689Y002846D01*
X008842Y003076D02*
X008919Y003153D01*
X008996Y003153D01*
X009072Y003076D01*
X009072Y002923D01*
X008996Y002846D01*
X009072Y003767D02*
X008612Y003767D01*
X008612Y003997D01*
X008689Y004074D01*
X008842Y004074D01*
X008919Y003997D01*
X008919Y003767D01*
X008842Y004227D02*
X008612Y004227D01*
X008842Y004227D02*
X008919Y004304D01*
X008919Y004534D01*
X008612Y004534D01*
X008612Y004688D02*
X008612Y004994D01*
X009072Y004994D01*
X009072Y004688D01*
X008842Y004841D02*
X008842Y004994D01*
D12*
X008055Y004143D02*
X007555Y004143D01*
X007305Y003893D01*
X007305Y003393D01*
X007555Y003143D01*
X008055Y003143D01*
X008305Y003393D01*
X008305Y003893D01*
X008055Y004143D01*
X009409Y003328D02*
X009730Y003328D01*
X009943Y003115D01*
X010050Y003115D01*
X009730Y003328D02*
X009943Y003542D01*
X010050Y003542D01*
X006336Y003393D02*
X006086Y003143D01*
X005586Y003143D01*
X005336Y003393D01*
X005336Y003893D01*
X005586Y004143D01*
X006086Y004143D01*
X006336Y003893D01*
X006336Y003393D01*
X004368Y003393D02*
X004118Y003143D01*
X003618Y003143D01*
X003368Y003393D01*
X003368Y003893D01*
X003618Y004143D01*
X004118Y004143D01*
X004368Y003893D01*
X004368Y003393D01*
M02*
