G75*
%MOIN*%
%OFA0B0*%
%FSLAX24Y24*%
%IPPOS*%
%LPD*%
%AMOC8*
5,1,8,0,0,1.08239X$1,22.5*
%
%ADD10C,0.0000*%
%ADD11C,0.0060*%
%ADD12C,0.0080*%
%ADD13C,0.0050*%
%ADD14R,0.0300X0.1500*%
%ADD15C,0.0100*%
%ADD16C,0.0079*%
%ADD17R,0.1500X0.0300*%
%ADD18C,0.0040*%
D10*
X000152Y019734D02*
X000152Y029183D01*
X110388Y029183D01*
X110388Y004773D01*
X100152Y004773D01*
X100152Y019734D01*
X000152Y019734D01*
X001530Y021499D02*
X001530Y022299D01*
X001130Y021899D02*
X001930Y021899D01*
X005762Y024458D02*
X005764Y024510D01*
X005770Y024562D01*
X005780Y024613D01*
X005793Y024663D01*
X005811Y024713D01*
X005832Y024760D01*
X005856Y024806D01*
X005885Y024850D01*
X005916Y024892D01*
X005950Y024931D01*
X005987Y024968D01*
X006027Y025001D01*
X006070Y025032D01*
X006114Y025059D01*
X006160Y025083D01*
X006209Y025103D01*
X006258Y025119D01*
X006309Y025132D01*
X006360Y025141D01*
X006412Y025146D01*
X006464Y025147D01*
X006516Y025144D01*
X006568Y025137D01*
X006619Y025126D01*
X006669Y025112D01*
X006718Y025093D01*
X006765Y025071D01*
X006810Y025046D01*
X006854Y025017D01*
X006895Y024985D01*
X006934Y024950D01*
X006969Y024912D01*
X007002Y024871D01*
X007032Y024829D01*
X007058Y024784D01*
X007081Y024737D01*
X007100Y024688D01*
X007116Y024638D01*
X007128Y024588D01*
X007136Y024536D01*
X007140Y024484D01*
X007140Y024432D01*
X007136Y024380D01*
X007128Y024328D01*
X007116Y024278D01*
X007100Y024228D01*
X007081Y024179D01*
X007058Y024132D01*
X007032Y024087D01*
X007002Y024045D01*
X006969Y024004D01*
X006934Y023966D01*
X006895Y023931D01*
X006854Y023899D01*
X006810Y023870D01*
X006765Y023845D01*
X006718Y023823D01*
X006669Y023804D01*
X006619Y023790D01*
X006568Y023779D01*
X006516Y023772D01*
X006464Y023769D01*
X006412Y023770D01*
X006360Y023775D01*
X006309Y023784D01*
X006258Y023797D01*
X006209Y023813D01*
X006160Y023833D01*
X006114Y023857D01*
X006070Y023884D01*
X006027Y023915D01*
X005987Y023948D01*
X005950Y023985D01*
X005916Y024024D01*
X005885Y024066D01*
X005856Y024110D01*
X005832Y024156D01*
X005811Y024203D01*
X005793Y024253D01*
X005780Y024303D01*
X005770Y024354D01*
X005764Y024406D01*
X005762Y024458D01*
X002914Y025442D02*
X002114Y025442D01*
X002514Y025042D02*
X002514Y025842D01*
X002514Y027405D02*
X002514Y028205D01*
X002114Y027805D02*
X002914Y027805D01*
X043558Y024458D02*
X043560Y024510D01*
X043566Y024562D01*
X043576Y024613D01*
X043589Y024663D01*
X043607Y024713D01*
X043628Y024760D01*
X043652Y024806D01*
X043681Y024850D01*
X043712Y024892D01*
X043746Y024931D01*
X043783Y024968D01*
X043823Y025001D01*
X043866Y025032D01*
X043910Y025059D01*
X043956Y025083D01*
X044005Y025103D01*
X044054Y025119D01*
X044105Y025132D01*
X044156Y025141D01*
X044208Y025146D01*
X044260Y025147D01*
X044312Y025144D01*
X044364Y025137D01*
X044415Y025126D01*
X044465Y025112D01*
X044514Y025093D01*
X044561Y025071D01*
X044606Y025046D01*
X044650Y025017D01*
X044691Y024985D01*
X044730Y024950D01*
X044765Y024912D01*
X044798Y024871D01*
X044828Y024829D01*
X044854Y024784D01*
X044877Y024737D01*
X044896Y024688D01*
X044912Y024638D01*
X044924Y024588D01*
X044932Y024536D01*
X044936Y024484D01*
X044936Y024432D01*
X044932Y024380D01*
X044924Y024328D01*
X044912Y024278D01*
X044896Y024228D01*
X044877Y024179D01*
X044854Y024132D01*
X044828Y024087D01*
X044798Y024045D01*
X044765Y024004D01*
X044730Y023966D01*
X044691Y023931D01*
X044650Y023899D01*
X044606Y023870D01*
X044561Y023845D01*
X044514Y023823D01*
X044465Y023804D01*
X044415Y023790D01*
X044364Y023779D01*
X044312Y023772D01*
X044260Y023769D01*
X044208Y023770D01*
X044156Y023775D01*
X044105Y023784D01*
X044054Y023797D01*
X044005Y023813D01*
X043956Y023833D01*
X043910Y023857D01*
X043866Y023884D01*
X043823Y023915D01*
X043783Y023948D01*
X043746Y023985D01*
X043712Y024024D01*
X043681Y024066D01*
X043652Y024110D01*
X043628Y024156D01*
X043607Y024203D01*
X043589Y024253D01*
X043576Y024303D01*
X043566Y024354D01*
X043560Y024406D01*
X043558Y024458D01*
X048577Y027011D02*
X048577Y027811D01*
X048177Y027411D02*
X048977Y027411D01*
X052652Y027411D02*
X053452Y027411D01*
X053052Y027011D02*
X053052Y027811D01*
X065500Y027805D02*
X066300Y027805D01*
X065900Y027405D02*
X065900Y028205D01*
X096996Y027805D02*
X097796Y027805D01*
X097396Y027405D02*
X097396Y028205D01*
X104187Y024458D02*
X104189Y024510D01*
X104195Y024562D01*
X104205Y024613D01*
X104218Y024663D01*
X104236Y024713D01*
X104257Y024760D01*
X104281Y024806D01*
X104310Y024850D01*
X104341Y024892D01*
X104375Y024931D01*
X104412Y024968D01*
X104452Y025001D01*
X104495Y025032D01*
X104539Y025059D01*
X104585Y025083D01*
X104634Y025103D01*
X104683Y025119D01*
X104734Y025132D01*
X104785Y025141D01*
X104837Y025146D01*
X104889Y025147D01*
X104941Y025144D01*
X104993Y025137D01*
X105044Y025126D01*
X105094Y025112D01*
X105143Y025093D01*
X105190Y025071D01*
X105235Y025046D01*
X105279Y025017D01*
X105320Y024985D01*
X105359Y024950D01*
X105394Y024912D01*
X105427Y024871D01*
X105457Y024829D01*
X105483Y024784D01*
X105506Y024737D01*
X105525Y024688D01*
X105541Y024638D01*
X105553Y024588D01*
X105561Y024536D01*
X105565Y024484D01*
X105565Y024432D01*
X105561Y024380D01*
X105553Y024328D01*
X105541Y024278D01*
X105525Y024228D01*
X105506Y024179D01*
X105483Y024132D01*
X105457Y024087D01*
X105427Y024045D01*
X105394Y024004D01*
X105359Y023966D01*
X105320Y023931D01*
X105279Y023899D01*
X105235Y023870D01*
X105190Y023845D01*
X105143Y023823D01*
X105094Y023804D01*
X105044Y023790D01*
X104993Y023779D01*
X104941Y023772D01*
X104889Y023769D01*
X104837Y023770D01*
X104785Y023775D01*
X104734Y023784D01*
X104683Y023797D01*
X104634Y023813D01*
X104585Y023833D01*
X104539Y023857D01*
X104495Y023884D01*
X104452Y023915D01*
X104412Y023948D01*
X104375Y023985D01*
X104341Y024024D01*
X104310Y024066D01*
X104281Y024110D01*
X104257Y024156D01*
X104236Y024203D01*
X104218Y024253D01*
X104205Y024303D01*
X104195Y024354D01*
X104189Y024406D01*
X104187Y024458D01*
X107436Y013638D02*
X107436Y012838D01*
X107036Y013238D02*
X107836Y013238D01*
X102521Y012647D02*
X101721Y012647D01*
X102121Y012247D02*
X102121Y013047D01*
X106058Y010291D02*
X106058Y009491D01*
X105658Y009891D02*
X106458Y009891D01*
X108020Y009891D02*
X108820Y009891D01*
X108420Y009491D02*
X108420Y010291D01*
X101432Y007923D02*
X101434Y007975D01*
X101440Y008027D01*
X101450Y008078D01*
X101463Y008128D01*
X101481Y008178D01*
X101502Y008225D01*
X101526Y008271D01*
X101555Y008315D01*
X101586Y008357D01*
X101620Y008396D01*
X101657Y008433D01*
X101697Y008466D01*
X101740Y008497D01*
X101784Y008524D01*
X101830Y008548D01*
X101879Y008568D01*
X101928Y008584D01*
X101979Y008597D01*
X102030Y008606D01*
X102082Y008611D01*
X102134Y008612D01*
X102186Y008609D01*
X102238Y008602D01*
X102289Y008591D01*
X102339Y008577D01*
X102388Y008558D01*
X102435Y008536D01*
X102480Y008511D01*
X102524Y008482D01*
X102565Y008450D01*
X102604Y008415D01*
X102639Y008377D01*
X102672Y008336D01*
X102702Y008294D01*
X102728Y008249D01*
X102751Y008202D01*
X102770Y008153D01*
X102786Y008103D01*
X102798Y008053D01*
X102806Y008001D01*
X102810Y007949D01*
X102810Y007897D01*
X102806Y007845D01*
X102798Y007793D01*
X102786Y007743D01*
X102770Y007693D01*
X102751Y007644D01*
X102728Y007597D01*
X102702Y007552D01*
X102672Y007510D01*
X102639Y007469D01*
X102604Y007431D01*
X102565Y007396D01*
X102524Y007364D01*
X102480Y007335D01*
X102435Y007310D01*
X102388Y007288D01*
X102339Y007269D01*
X102289Y007255D01*
X102238Y007244D01*
X102186Y007237D01*
X102134Y007234D01*
X102082Y007235D01*
X102030Y007240D01*
X101979Y007249D01*
X101928Y007262D01*
X101879Y007278D01*
X101830Y007298D01*
X101784Y007322D01*
X101740Y007349D01*
X101697Y007380D01*
X101657Y007413D01*
X101620Y007450D01*
X101586Y007489D01*
X101555Y007531D01*
X101526Y007575D01*
X101502Y007621D01*
X101481Y007668D01*
X101463Y007718D01*
X101450Y007768D01*
X101440Y007819D01*
X101434Y007871D01*
X101432Y007923D01*
X106058Y006748D02*
X106058Y005948D01*
X105658Y006348D02*
X106458Y006348D01*
X108020Y006348D02*
X108820Y006348D01*
X108420Y005948D02*
X108420Y006748D01*
D11*
X109931Y006683D02*
X109931Y007003D01*
X110038Y007110D01*
X110358Y007110D01*
X110358Y006683D02*
X109931Y006683D01*
X110038Y006465D02*
X110358Y006465D01*
X110358Y006145D01*
X110252Y006038D01*
X110145Y006145D01*
X110145Y006465D01*
X110038Y006465D02*
X109931Y006359D01*
X109931Y006145D01*
X109718Y005821D02*
X109718Y005394D01*
X110358Y005394D01*
X110038Y005394D02*
X110038Y005607D01*
X104846Y005410D02*
X104206Y005410D01*
X104206Y005197D02*
X104206Y005624D01*
X104526Y005841D02*
X104419Y005948D01*
X104419Y006162D01*
X104526Y006268D01*
X104633Y006268D01*
X104633Y005841D01*
X104740Y005841D02*
X104526Y005841D01*
X104740Y005841D02*
X104846Y005948D01*
X104846Y006162D01*
X104846Y006486D02*
X104419Y006486D01*
X104419Y006593D01*
X104526Y006699D01*
X104419Y006806D01*
X104526Y006913D01*
X104846Y006913D01*
X104846Y006699D02*
X104526Y006699D01*
X104419Y007130D02*
X104419Y007451D01*
X104526Y007558D01*
X104740Y007558D01*
X104846Y007451D01*
X104846Y007130D01*
X105060Y007130D02*
X104419Y007130D01*
X104206Y008346D02*
X104846Y008773D01*
X104846Y008346D02*
X104206Y008773D01*
X104419Y009636D02*
X104419Y009742D01*
X104526Y009849D01*
X104419Y009956D01*
X104526Y010063D01*
X104846Y010063D01*
X104846Y009849D02*
X104526Y009849D01*
X104419Y009636D02*
X104846Y009636D01*
X104740Y010280D02*
X104633Y010387D01*
X104633Y010707D01*
X104526Y010707D02*
X104846Y010707D01*
X104846Y010387D01*
X104740Y010280D01*
X104419Y010387D02*
X104419Y010600D01*
X104526Y010707D01*
X104419Y010925D02*
X104846Y011352D01*
X104846Y010925D02*
X104419Y011352D01*
X104121Y011247D02*
X104121Y011797D01*
X100121Y011797D01*
X100121Y013497D01*
X104121Y013497D01*
X104121Y011797D01*
X104121Y011247D02*
X100121Y011247D01*
X100121Y011797D01*
X099921Y013447D02*
X100121Y013497D01*
X100121Y013847D01*
X100121Y014197D01*
X104121Y014197D01*
X104121Y013497D01*
X102911Y013847D02*
X102913Y013875D01*
X102919Y013902D01*
X102928Y013928D01*
X102941Y013953D01*
X102958Y013976D01*
X102977Y013996D01*
X102999Y014013D01*
X103023Y014027D01*
X103049Y014037D01*
X103076Y014044D01*
X103104Y014047D01*
X103132Y014046D01*
X103159Y014041D01*
X103186Y014032D01*
X103211Y014020D01*
X103234Y014005D01*
X103255Y013986D01*
X103273Y013965D01*
X103288Y013941D01*
X103299Y013915D01*
X103307Y013889D01*
X103311Y013861D01*
X103311Y013833D01*
X103307Y013805D01*
X103299Y013779D01*
X103288Y013753D01*
X103273Y013729D01*
X103255Y013708D01*
X103234Y013689D01*
X103211Y013674D01*
X103186Y013662D01*
X103159Y013653D01*
X103132Y013648D01*
X103104Y013647D01*
X103076Y013650D01*
X103049Y013657D01*
X103023Y013667D01*
X102999Y013681D01*
X102977Y013698D01*
X102958Y013718D01*
X102941Y013741D01*
X102928Y013766D01*
X102919Y013792D01*
X102913Y013819D01*
X102911Y013847D01*
X100931Y013847D02*
X100933Y013875D01*
X100939Y013902D01*
X100948Y013928D01*
X100961Y013953D01*
X100978Y013976D01*
X100997Y013996D01*
X101019Y014013D01*
X101043Y014027D01*
X101069Y014037D01*
X101096Y014044D01*
X101124Y014047D01*
X101152Y014046D01*
X101179Y014041D01*
X101206Y014032D01*
X101231Y014020D01*
X101254Y014005D01*
X101275Y013986D01*
X101293Y013965D01*
X101308Y013941D01*
X101319Y013915D01*
X101327Y013889D01*
X101331Y013861D01*
X101331Y013833D01*
X101327Y013805D01*
X101319Y013779D01*
X101308Y013753D01*
X101293Y013729D01*
X101275Y013708D01*
X101254Y013689D01*
X101231Y013674D01*
X101206Y013662D01*
X101179Y013653D01*
X101152Y013648D01*
X101124Y013647D01*
X101096Y013650D01*
X101069Y013657D01*
X101043Y013667D01*
X101019Y013681D01*
X100997Y013698D01*
X100978Y013718D01*
X100961Y013741D01*
X100948Y013766D01*
X100939Y013792D01*
X100933Y013819D01*
X100931Y013847D01*
X100121Y013847D02*
X099921Y013897D01*
X099921Y013447D01*
X100773Y014646D02*
X100773Y015286D01*
X100773Y014966D02*
X101200Y014966D01*
X101417Y014966D02*
X101524Y015073D01*
X101737Y015073D01*
X101844Y014966D01*
X101844Y014859D01*
X101417Y014859D01*
X101417Y014752D02*
X101417Y014966D01*
X101417Y014752D02*
X101524Y014646D01*
X101737Y014646D01*
X102062Y014752D02*
X102168Y014859D01*
X102489Y014859D01*
X102489Y014966D02*
X102489Y014646D01*
X102168Y014646D01*
X102062Y014752D01*
X102168Y015073D02*
X102382Y015073D01*
X102489Y014966D01*
X102706Y015073D02*
X102920Y015073D01*
X102813Y015179D02*
X102813Y014752D01*
X102920Y014646D01*
X103136Y014752D02*
X103136Y014966D01*
X103243Y015073D01*
X103456Y015073D01*
X103563Y014966D01*
X103563Y014859D01*
X103136Y014859D01*
X103136Y014752D02*
X103243Y014646D01*
X103456Y014646D01*
X103780Y014646D02*
X103780Y015073D01*
X103780Y014859D02*
X103994Y015073D01*
X104101Y015073D01*
X105694Y015286D02*
X106121Y014646D01*
X105694Y014646D02*
X106121Y015286D01*
X106983Y015073D02*
X107090Y015073D01*
X107196Y014966D01*
X107303Y015073D01*
X107410Y014966D01*
X107410Y014646D01*
X107196Y014646D02*
X107196Y014966D01*
X106983Y015073D02*
X106983Y014646D01*
X107628Y014752D02*
X107628Y014966D01*
X107734Y015073D01*
X107948Y015073D01*
X108055Y014966D01*
X108055Y014752D01*
X107948Y014646D01*
X107734Y014646D01*
X107628Y014752D01*
X108272Y015073D02*
X108486Y015073D01*
X108379Y015179D02*
X108379Y014752D01*
X108486Y014646D01*
X108702Y014752D02*
X108702Y014966D01*
X108809Y015073D01*
X109022Y015073D01*
X109129Y014966D01*
X109129Y014752D01*
X109022Y014646D01*
X108809Y014646D01*
X108702Y014752D01*
X109346Y014646D02*
X109346Y015073D01*
X109560Y015073D02*
X109667Y015073D01*
X109560Y015073D02*
X109346Y014859D01*
X101200Y014646D02*
X101200Y015286D01*
X109931Y011227D02*
X110038Y011334D01*
X110358Y011334D01*
X110358Y010907D02*
X109931Y010907D01*
X109931Y011227D01*
X109931Y010584D02*
X110358Y010584D01*
X110358Y010690D02*
X110358Y010477D01*
X110358Y010259D02*
X110038Y010259D01*
X109931Y010153D01*
X110038Y010046D01*
X110358Y010046D01*
X110358Y009832D02*
X109931Y009832D01*
X109931Y009939D01*
X110038Y010046D01*
X109931Y010477D02*
X109931Y010584D01*
X109718Y010584D02*
X109611Y010584D01*
X109718Y008970D02*
X109824Y008970D01*
X110252Y008543D01*
X110358Y008543D01*
X110358Y008970D01*
X109718Y008970D02*
X109718Y008543D01*
X045207Y026637D02*
X045207Y027277D01*
X045527Y027277D01*
X045634Y027171D01*
X045634Y026957D01*
X045527Y026850D01*
X045207Y026850D01*
X044989Y026957D02*
X044882Y026850D01*
X044669Y026850D01*
X044562Y026957D01*
X044562Y027171D01*
X044669Y027277D01*
X044882Y027277D01*
X044989Y027171D01*
X044989Y026957D01*
X044346Y026850D02*
X044239Y026957D01*
X044239Y027384D01*
X044133Y027277D02*
X044346Y027277D01*
X043915Y027384D02*
X043808Y027491D01*
X043595Y027491D01*
X043488Y027384D01*
X043488Y027277D01*
X043595Y027171D01*
X043808Y027171D01*
X043915Y027064D01*
X043915Y026957D01*
X043808Y026850D01*
X043595Y026850D01*
X043488Y026957D01*
X042626Y026850D02*
X042306Y026850D01*
X042199Y026957D01*
X042199Y027171D01*
X042306Y027277D01*
X042626Y027277D01*
X042626Y027491D02*
X042626Y026850D01*
X041981Y026850D02*
X041981Y027171D01*
X041875Y027277D01*
X041554Y027277D01*
X041554Y026850D01*
X041337Y026850D02*
X040910Y026850D01*
X040910Y027491D01*
X041337Y027491D01*
X041123Y027171D02*
X040910Y027171D01*
X040048Y027384D02*
X039621Y026957D01*
X039621Y026850D01*
X040048Y026850D01*
X039403Y027491D02*
X038976Y026850D01*
X038759Y026850D02*
X038332Y027491D01*
X038759Y027491D02*
X038332Y026850D01*
X039621Y027491D02*
X040048Y027491D01*
X040048Y027384D01*
X056481Y027491D02*
X056908Y026850D01*
X056481Y026850D02*
X056908Y027491D01*
X057770Y027277D02*
X057877Y027277D01*
X057984Y027171D01*
X058091Y027277D01*
X058197Y027171D01*
X058197Y026850D01*
X057984Y026850D02*
X057984Y027171D01*
X057770Y027277D02*
X057770Y026850D01*
X058415Y026957D02*
X058522Y026850D01*
X058735Y026850D01*
X058842Y026957D01*
X058842Y027171D01*
X058735Y027277D01*
X058522Y027277D01*
X058415Y027171D01*
X058415Y026957D01*
X059059Y027277D02*
X059273Y027277D01*
X059166Y027384D02*
X059166Y026957D01*
X059273Y026850D01*
X059489Y026957D02*
X059596Y026850D01*
X059809Y026850D01*
X059916Y026957D01*
X059916Y027171D01*
X059809Y027277D01*
X059596Y027277D01*
X059489Y027171D01*
X059489Y026957D01*
X060134Y026850D02*
X060134Y027277D01*
X060134Y027064D02*
X060347Y027277D01*
X060454Y027277D01*
X087616Y027745D02*
X087723Y027638D01*
X087936Y027638D01*
X088043Y027745D01*
X088261Y027745D02*
X088367Y027638D01*
X088581Y027638D01*
X088688Y027745D01*
X088688Y027958D01*
X088581Y028065D01*
X088367Y028065D01*
X088261Y027958D01*
X088261Y027745D01*
X088905Y027745D02*
X088905Y027958D01*
X089012Y028065D01*
X089226Y028065D01*
X089332Y027958D01*
X089332Y027745D01*
X089226Y027638D01*
X089012Y027638D01*
X088905Y027745D01*
X089550Y027638D02*
X089763Y027638D01*
X089657Y027638D02*
X089657Y028278D01*
X089550Y028278D01*
X089980Y028065D02*
X090086Y028065D01*
X090086Y027638D01*
X089980Y027638D02*
X090193Y027638D01*
X090409Y027638D02*
X090409Y028065D01*
X090729Y028065D01*
X090836Y027958D01*
X090836Y027638D01*
X091054Y027745D02*
X091161Y027638D01*
X091481Y027638D01*
X091481Y027531D02*
X091481Y028065D01*
X091161Y028065D01*
X091054Y027958D01*
X091054Y027745D01*
X091267Y027424D02*
X091374Y027424D01*
X091481Y027531D01*
X092343Y027638D02*
X092343Y028278D01*
X092770Y028278D01*
X092556Y027958D02*
X092343Y027958D01*
X092987Y027745D02*
X093094Y027851D01*
X093414Y027851D01*
X093414Y027958D02*
X093414Y027638D01*
X093094Y027638D01*
X092987Y027745D01*
X093094Y028065D02*
X093308Y028065D01*
X093414Y027958D01*
X093632Y028065D02*
X093952Y028065D01*
X094059Y027958D01*
X094059Y027638D01*
X093632Y027638D02*
X093632Y028065D01*
X090086Y028278D02*
X090086Y028385D01*
X088043Y028172D02*
X087936Y028278D01*
X087723Y028278D01*
X087616Y028172D01*
X087616Y027745D01*
X012066Y026096D02*
X011959Y026096D01*
X011746Y025883D01*
X011746Y026096D02*
X011746Y025669D01*
X011528Y025776D02*
X011421Y025669D01*
X011208Y025669D01*
X011101Y025776D01*
X011101Y025990D01*
X011208Y026096D01*
X011421Y026096D01*
X011528Y025990D01*
X011528Y025776D01*
X010884Y025776D02*
X010777Y025669D01*
X010457Y025669D01*
X010239Y025669D02*
X010239Y025990D01*
X010132Y026096D01*
X009812Y026096D01*
X009812Y025669D01*
X009594Y025883D02*
X009167Y025883D01*
X009167Y025990D02*
X009274Y026096D01*
X009488Y026096D01*
X009594Y025990D01*
X009594Y025883D01*
X009488Y025669D02*
X009274Y025669D01*
X009167Y025776D01*
X009167Y025990D01*
X008950Y025883D02*
X008950Y025776D01*
X008843Y025669D01*
X008630Y025669D01*
X008523Y025776D01*
X008630Y025990D02*
X008843Y025990D01*
X008950Y025883D01*
X008950Y026203D02*
X008843Y026310D01*
X008630Y026310D01*
X008523Y026203D01*
X008523Y026096D01*
X008630Y025990D01*
X007661Y025990D02*
X007554Y026096D01*
X007234Y026096D01*
X007234Y025456D01*
X007234Y025669D02*
X007554Y025669D01*
X007661Y025776D01*
X007661Y025990D01*
X007016Y025990D02*
X007016Y025669D01*
X006803Y025669D02*
X006803Y025990D01*
X006910Y026096D01*
X007016Y025990D01*
X006803Y025990D02*
X006696Y026096D01*
X006589Y026096D01*
X006589Y025669D01*
X006372Y025883D02*
X005945Y025883D01*
X005945Y025990D02*
X006051Y026096D01*
X006265Y026096D01*
X006372Y025990D01*
X006372Y025883D01*
X006265Y025669D02*
X006051Y025669D01*
X005945Y025776D01*
X005945Y025990D01*
X005727Y026310D02*
X005300Y026310D01*
X005514Y026310D02*
X005514Y025669D01*
X002780Y024099D02*
X002330Y024099D01*
X002380Y023899D01*
X000680Y023899D01*
X000680Y019899D01*
X000130Y019899D01*
X000130Y023899D01*
X000680Y023899D01*
X002380Y023899D02*
X002380Y019899D01*
X000680Y019899D01*
X002380Y019899D02*
X003080Y019899D01*
X003080Y023899D01*
X002730Y023899D01*
X002380Y023899D01*
X002730Y023899D02*
X002780Y024099D01*
X002530Y022889D02*
X002532Y022917D01*
X002538Y022944D01*
X002547Y022970D01*
X002560Y022995D01*
X002577Y023018D01*
X002596Y023038D01*
X002618Y023055D01*
X002642Y023069D01*
X002668Y023079D01*
X002695Y023086D01*
X002723Y023089D01*
X002751Y023088D01*
X002778Y023083D01*
X002805Y023074D01*
X002830Y023062D01*
X002853Y023047D01*
X002874Y023028D01*
X002892Y023007D01*
X002907Y022983D01*
X002918Y022957D01*
X002926Y022931D01*
X002930Y022903D01*
X002930Y022875D01*
X002926Y022847D01*
X002918Y022821D01*
X002907Y022795D01*
X002892Y022771D01*
X002874Y022750D01*
X002853Y022731D01*
X002830Y022716D01*
X002805Y022704D01*
X002778Y022695D01*
X002751Y022690D01*
X002723Y022689D01*
X002695Y022692D01*
X002668Y022699D01*
X002642Y022709D01*
X002618Y022723D01*
X002596Y022740D01*
X002577Y022760D01*
X002560Y022783D01*
X002547Y022808D01*
X002538Y022834D01*
X002532Y022861D01*
X002530Y022889D01*
X005300Y022176D02*
X005300Y021535D01*
X005300Y021856D02*
X005727Y021856D01*
X005945Y021856D02*
X006051Y021962D01*
X006265Y021962D01*
X006372Y021856D01*
X006372Y021749D01*
X005945Y021749D01*
X005945Y021642D02*
X005945Y021856D01*
X005945Y021642D02*
X006051Y021535D01*
X006265Y021535D01*
X006589Y021642D02*
X006696Y021749D01*
X007016Y021749D01*
X007016Y021856D02*
X007016Y021535D01*
X006696Y021535D01*
X006589Y021642D01*
X006910Y021962D02*
X007016Y021856D01*
X006910Y021962D02*
X006696Y021962D01*
X007234Y021962D02*
X007447Y021962D01*
X007341Y022069D02*
X007341Y021642D01*
X007447Y021535D01*
X007664Y021642D02*
X007664Y021856D01*
X007770Y021962D01*
X007984Y021962D01*
X008091Y021856D01*
X008091Y021749D01*
X007664Y021749D01*
X007664Y021642D02*
X007770Y021535D01*
X007984Y021535D01*
X008308Y021535D02*
X008308Y021962D01*
X008308Y021749D02*
X008522Y021962D01*
X008628Y021962D01*
X005727Y022176D02*
X005727Y021535D01*
X002530Y020909D02*
X002532Y020937D01*
X002538Y020964D01*
X002547Y020990D01*
X002560Y021015D01*
X002577Y021038D01*
X002596Y021058D01*
X002618Y021075D01*
X002642Y021089D01*
X002668Y021099D01*
X002695Y021106D01*
X002723Y021109D01*
X002751Y021108D01*
X002778Y021103D01*
X002805Y021094D01*
X002830Y021082D01*
X002853Y021067D01*
X002874Y021048D01*
X002892Y021027D01*
X002907Y021003D01*
X002918Y020977D01*
X002926Y020951D01*
X002930Y020923D01*
X002930Y020895D01*
X002926Y020867D01*
X002918Y020841D01*
X002907Y020815D01*
X002892Y020791D01*
X002874Y020770D01*
X002853Y020751D01*
X002830Y020736D01*
X002805Y020724D01*
X002778Y020715D01*
X002751Y020710D01*
X002723Y020709D01*
X002695Y020712D01*
X002668Y020719D01*
X002642Y020729D01*
X002618Y020743D01*
X002596Y020760D01*
X002577Y020780D01*
X002560Y020803D01*
X002547Y020828D01*
X002538Y020854D01*
X002532Y020881D01*
X002530Y020909D01*
X010457Y025990D02*
X010563Y026096D01*
X010884Y026096D01*
X010777Y025883D02*
X010563Y025883D01*
X010457Y025990D01*
X010777Y025883D02*
X010884Y025776D01*
X009165Y027531D02*
X009058Y027424D01*
X008951Y027424D01*
X008845Y027638D02*
X009165Y027638D01*
X009165Y027531D02*
X009165Y028065D01*
X008845Y028065D01*
X008738Y027958D01*
X008738Y027745D01*
X008845Y027638D01*
X008520Y027638D02*
X008520Y027958D01*
X008413Y028065D01*
X008093Y028065D01*
X008093Y027638D01*
X007877Y027638D02*
X007664Y027638D01*
X007770Y027638D02*
X007770Y028065D01*
X007664Y028065D01*
X007770Y028278D02*
X007770Y028385D01*
X007341Y028278D02*
X007341Y027638D01*
X007447Y027638D02*
X007234Y027638D01*
X007016Y027745D02*
X007016Y027958D01*
X006910Y028065D01*
X006696Y028065D01*
X006589Y027958D01*
X006589Y027745D01*
X006696Y027638D01*
X006910Y027638D01*
X007016Y027745D01*
X006372Y027745D02*
X006372Y027958D01*
X006265Y028065D01*
X006051Y028065D01*
X005945Y027958D01*
X005945Y027745D01*
X006051Y027638D01*
X006265Y027638D01*
X006372Y027745D01*
X005727Y027745D02*
X005620Y027638D01*
X005407Y027638D01*
X005300Y027745D01*
X005300Y028172D01*
X005407Y028278D01*
X005620Y028278D01*
X005727Y028172D01*
X007234Y028278D02*
X007341Y028278D01*
X010027Y028278D02*
X010027Y027638D01*
X010027Y027958D02*
X010240Y027958D01*
X010027Y028278D02*
X010454Y028278D01*
X010778Y028065D02*
X010992Y028065D01*
X011098Y027958D01*
X011098Y027638D01*
X010778Y027638D01*
X010671Y027745D01*
X010778Y027851D01*
X011098Y027851D01*
X011316Y027638D02*
X011316Y028065D01*
X011636Y028065D01*
X011743Y027958D01*
X011743Y027638D01*
D12*
X047717Y022163D02*
X048331Y022163D01*
X048024Y022163D02*
X048024Y021242D01*
X048638Y021242D02*
X048945Y021242D01*
X048791Y021242D02*
X048791Y021856D01*
X048638Y021856D01*
X048791Y022163D02*
X048791Y022317D01*
X049252Y021856D02*
X049712Y021856D01*
X049866Y021703D01*
X049866Y021242D01*
X050173Y021396D02*
X050326Y021242D01*
X050787Y021242D01*
X050787Y021089D02*
X050633Y020935D01*
X050480Y020935D01*
X050787Y021089D02*
X050787Y021856D01*
X051093Y021703D02*
X051554Y021703D01*
X051707Y021549D01*
X051707Y021396D01*
X051554Y021242D01*
X051093Y021242D01*
X051093Y022163D01*
X051554Y022163D01*
X051707Y022010D01*
X051707Y021856D01*
X051554Y021703D01*
X052014Y021703D02*
X052014Y021396D01*
X052168Y021242D01*
X052475Y021242D01*
X052628Y021396D01*
X052628Y021703D01*
X052475Y021856D01*
X052168Y021856D01*
X052014Y021703D01*
X052935Y021856D02*
X052935Y021396D01*
X053089Y021242D01*
X053549Y021242D01*
X053549Y021089D02*
X053395Y020935D01*
X053242Y020935D01*
X053549Y021089D02*
X053549Y021856D01*
X053856Y022010D02*
X054009Y022163D01*
X054316Y022163D01*
X054470Y022010D01*
X054470Y021856D01*
X053856Y021242D01*
X054470Y021242D01*
X055697Y021549D02*
X055697Y021856D01*
X056004Y022163D01*
X056311Y022163D02*
X056311Y021242D01*
X056925Y021242D01*
X057232Y021242D02*
X057846Y021242D01*
X057539Y021242D02*
X057539Y022163D01*
X057232Y021856D01*
X058153Y021703D02*
X058153Y021396D01*
X058306Y021242D01*
X058613Y021242D01*
X058767Y021396D01*
X058767Y021549D01*
X058613Y021703D01*
X058153Y021703D01*
X058460Y022010D01*
X058767Y022163D01*
X059074Y022163D02*
X059381Y021856D01*
X059381Y021549D01*
X059074Y021242D01*
X060608Y021242D02*
X060915Y021549D01*
X061222Y021242D01*
X061222Y022163D01*
X061529Y021856D02*
X061683Y021856D01*
X061683Y021242D01*
X061836Y021242D02*
X061529Y021242D01*
X062143Y021242D02*
X062143Y021856D01*
X062143Y021549D02*
X062450Y021856D01*
X062603Y021856D01*
X062910Y021703D02*
X063064Y021856D01*
X063371Y021856D01*
X063524Y021703D01*
X063524Y021549D01*
X062910Y021549D01*
X062910Y021396D02*
X062910Y021703D01*
X062910Y021396D02*
X063064Y021242D01*
X063371Y021242D01*
X064752Y021242D02*
X065212Y021242D01*
X065366Y021396D01*
X065366Y021549D01*
X065212Y021703D01*
X064752Y021703D01*
X064752Y022163D02*
X065212Y022163D01*
X065366Y022010D01*
X065366Y021856D01*
X065212Y021703D01*
X065673Y021703D02*
X065673Y021396D01*
X065826Y021242D01*
X066133Y021242D01*
X066286Y021396D01*
X066286Y021703D01*
X066133Y021856D01*
X065826Y021856D01*
X065673Y021703D01*
X066593Y021396D02*
X066747Y021549D01*
X067207Y021549D01*
X067207Y021703D02*
X067207Y021242D01*
X066747Y021242D01*
X066593Y021396D01*
X066747Y021856D02*
X067054Y021856D01*
X067207Y021703D01*
X067514Y021856D02*
X067514Y021242D01*
X067514Y021549D02*
X067821Y021856D01*
X067975Y021856D01*
X068281Y021703D02*
X068435Y021856D01*
X068895Y021856D01*
X068895Y022163D02*
X068895Y021242D01*
X068435Y021242D01*
X068281Y021396D01*
X068281Y021703D01*
X064752Y021242D02*
X064752Y022163D01*
X061683Y022163D02*
X061683Y022317D01*
X060608Y022163D02*
X060608Y021242D01*
X056004Y021242D02*
X055697Y021549D01*
X050173Y021396D02*
X050173Y021856D01*
X049252Y021856D02*
X049252Y021242D01*
D13*
X064798Y026643D02*
X065664Y026643D01*
X065664Y026879D01*
X066018Y026879D01*
X066018Y026643D01*
X066569Y026643D01*
X066569Y027647D01*
X066333Y027647D01*
X066333Y026879D01*
X066018Y026879D01*
X066018Y026643D02*
X065664Y026643D01*
X065664Y026879D02*
X065034Y026879D01*
X065034Y028730D01*
X065664Y028730D01*
X065664Y028966D01*
X066018Y028966D01*
X066018Y028730D01*
X066333Y028730D01*
X066333Y027962D01*
X066569Y027962D01*
X066569Y028966D01*
X066018Y028966D01*
X066018Y028730D02*
X065664Y028730D01*
X065664Y028966D02*
X064798Y028966D01*
X064798Y026643D01*
X066569Y027647D02*
X066569Y027962D01*
X096294Y028966D02*
X096294Y026643D01*
X097160Y026643D01*
X097160Y026879D01*
X097514Y026879D01*
X097514Y026643D01*
X098065Y026643D01*
X098065Y027647D01*
X097829Y027647D01*
X097829Y026879D01*
X097514Y026879D01*
X097514Y026643D02*
X097160Y026643D01*
X097160Y026879D02*
X096530Y026879D01*
X096530Y028730D01*
X097160Y028730D01*
X097160Y028966D01*
X097514Y028966D01*
X097514Y028730D01*
X097829Y028730D01*
X097829Y027962D01*
X098065Y027962D01*
X098065Y028966D01*
X097514Y028966D01*
X097514Y028730D02*
X097160Y028730D01*
X097160Y028966D02*
X096294Y028966D01*
X098065Y027962D02*
X098065Y027647D01*
X100509Y014012D02*
X100509Y013672D01*
X100396Y013672D02*
X100622Y013672D01*
X100396Y013899D02*
X100509Y014012D01*
X102396Y013956D02*
X102452Y014012D01*
X102566Y014012D01*
X102622Y013956D01*
X102622Y013899D01*
X102396Y013672D01*
X102622Y013672D01*
X003184Y024281D02*
X002632Y024281D01*
X002632Y024517D01*
X002947Y024517D01*
X002947Y025285D01*
X003184Y025285D01*
X003184Y025600D01*
X002947Y025600D01*
X002947Y026368D01*
X002632Y026368D01*
X002632Y026604D01*
X003184Y026604D01*
X003184Y025600D01*
X003184Y025285D02*
X003184Y024281D01*
X002632Y024281D02*
X002278Y024281D01*
X002278Y024517D01*
X002632Y024517D01*
X002278Y024517D02*
X001648Y024517D01*
X001648Y026368D01*
X002278Y026368D01*
X002278Y026604D01*
X002632Y026604D01*
X002632Y026643D02*
X002632Y026879D01*
X002947Y026879D01*
X002947Y027647D01*
X003184Y027647D01*
X003184Y027962D01*
X002947Y027962D01*
X002947Y028730D01*
X002632Y028730D01*
X002632Y028966D01*
X003184Y028966D01*
X003184Y027962D01*
X003184Y027647D02*
X003184Y026643D01*
X002632Y026643D01*
X002278Y026643D01*
X002278Y026879D01*
X002632Y026879D01*
X002278Y026879D02*
X001648Y026879D01*
X001648Y028730D01*
X002278Y028730D01*
X002278Y028966D01*
X002632Y028966D01*
X002632Y028730D02*
X002278Y028730D01*
X002278Y028966D02*
X001412Y028966D01*
X001412Y026643D01*
X002278Y026643D01*
X002278Y026604D02*
X001412Y026604D01*
X001412Y024281D01*
X002278Y024281D01*
X002555Y023428D02*
X002895Y023428D01*
X002895Y023315D02*
X002895Y023542D01*
X002668Y023315D02*
X002555Y023428D01*
X002611Y021542D02*
X002555Y021485D01*
X002555Y021372D01*
X002611Y021315D01*
X002611Y021542D02*
X002668Y021542D01*
X002895Y021315D01*
X002895Y021542D01*
X002632Y026368D02*
X002278Y026368D01*
D14*
X102121Y012647D03*
D15*
X104995Y011902D02*
X109876Y011902D01*
X109876Y014166D01*
X104995Y014166D01*
X104995Y011902D01*
X105129Y011840D02*
X105129Y007942D01*
X107393Y007942D01*
X107393Y011840D01*
X105129Y011840D01*
X105152Y010915D02*
X105349Y010915D01*
X107514Y010915D02*
X107711Y010915D01*
X107492Y011840D02*
X107492Y007942D01*
X109755Y007942D01*
X109755Y011840D01*
X107492Y011840D01*
X108932Y013946D02*
X108932Y014143D01*
X105900Y014143D02*
X105900Y013946D01*
X105349Y008907D02*
X105152Y008907D01*
X107514Y008907D02*
X107711Y008907D01*
X107492Y007805D02*
X107492Y004891D01*
X109755Y004891D01*
X109755Y007805D01*
X107492Y007805D01*
X107393Y007805D02*
X105129Y007805D01*
X105129Y004891D01*
X107393Y004891D01*
X107393Y007805D01*
X055493Y026075D02*
X050611Y026075D01*
X050611Y028339D01*
X055493Y028339D01*
X055493Y026075D01*
X050526Y026075D02*
X050526Y028339D01*
X046628Y028339D01*
X046628Y026075D01*
X050526Y026075D01*
X049601Y028120D02*
X049601Y028316D01*
X051516Y028316D02*
X051516Y028120D01*
X054548Y028120D02*
X054548Y028316D01*
X047593Y028316D02*
X047593Y028120D01*
D16*
X105152Y006860D02*
X105349Y006860D01*
X105349Y005836D01*
X105152Y005836D01*
X107514Y005836D02*
X107711Y005836D01*
X107711Y006860D01*
X107514Y006860D01*
D17*
X001530Y021899D03*
D18*
X003565Y025817D02*
X003412Y025970D01*
X003872Y025970D01*
X003872Y025817D02*
X003872Y026124D01*
X003872Y028179D02*
X003872Y028486D01*
X003872Y028332D02*
X003412Y028332D01*
X003565Y028179D01*
X066798Y028332D02*
X067258Y028332D01*
X067258Y028179D02*
X067258Y028486D01*
X066951Y028179D02*
X066798Y028332D01*
X098294Y028332D02*
X098754Y028332D01*
X098754Y028179D02*
X098754Y028486D01*
X098447Y028179D02*
X098294Y028332D01*
M02*
